<?xml version="1.0" encoding="utf-8"?>
<!-- Generator: Adobe Illustrator 24.3.0, SVG Export Plug-In . SVG Version: 6.00 Build 0)  -->
<svg version="1.1" id="Layer_1" xmlns="http://www.w3.org/2000/svg" xmlns:xlink="http://www.w3.org/1999/xlink" x="0px" y="0px"
	 viewBox="0 0 170.1 64.9" style="enable-background:new 0 0 170.1 64.9;" xml:space="preserve">
<g>
	<rect style="fill:#C1C1C1;" width="170.1" height="64.9"/>
	<rect style="fill:#C1C1C1;" width="170.1" height="64.9"/>
</g>
<path style="fill:#6B6B6B;" d="M31.6,37.2h-2.3l-2.7-5.9h0c0,0.4,0.1,0.8,0.1,1.1c0,0.4,0,0.7,0,1v3.7h-1.7v-8.6h2.3l2.7,5.7h0
	c0-0.4,0-0.7-0.1-1.1c0-0.4,0-0.7,0-1v-3.7h1.8V37.2z M35.5,30.5c0.8,0,1.4,0.3,1.9,0.8c0.5,0.5,0.7,1.3,0.7,2.2v0.9h-3.4
	c0,1,0.4,1.5,1.3,1.5c0.3,0,0.6,0,0.9-0.1c0.3-0.1,0.6-0.2,0.9-0.4v1.5c-0.6,0.3-1.2,0.5-2,0.5c-1,0-1.7-0.3-2.2-0.9
	s-0.7-1.4-0.7-2.5c0-1.1,0.2-2,0.7-2.6C34,30.8,34.7,30.5,35.5,30.5z M35.6,31.9c-0.3,0-0.5,0.1-0.6,0.3c-0.2,0.2-0.3,0.5-0.3,1h1.8
	c0-0.4-0.1-0.7-0.2-1S35.9,31.9,35.6,31.9z M43.8,37.2l-0.6-3c0-0.2-0.1-0.4-0.1-0.7s-0.1-0.5-0.1-0.7c0-0.2-0.1-0.4-0.1-0.6h0
	c0,0.2-0.1,0.4-0.1,0.7c0,0.2-0.1,0.5-0.1,0.7c0,0.2-0.1,0.4-0.1,0.6l-0.6,3h-2l-1.5-6.6h1.8l0.5,2.4c0.1,0.3,0.1,0.7,0.2,1.1
	C41,34.6,41,35,41,35.3h0c0-0.3,0.1-0.6,0.1-1c0.1-0.4,0.1-0.7,0.2-1.1l0.5-2.6H44l0.5,2.6c0.1,0.3,0.1,0.7,0.2,1.1s0.1,0.7,0.1,1h0
	c0-0.3,0.1-0.7,0.1-1c0-0.4,0.1-0.8,0.2-1.1l0.5-2.5h1.8l-1.5,6.6H43.8z M52.2,35.3c0,0.7-0.2,1.2-0.6,1.6s-1,0.5-1.8,0.5
	c-0.4,0-0.7,0-1-0.1c-0.3-0.1-0.6-0.2-0.9-0.3v-1.7c0.3,0.2,0.6,0.3,0.9,0.4c0.3,0.1,0.6,0.2,0.9,0.2c0.5,0,0.7-0.2,0.7-0.5
	c0-0.1,0-0.2-0.1-0.3c0-0.1-0.2-0.2-0.3-0.3s-0.4-0.2-0.7-0.4c-0.5-0.2-0.8-0.5-1-0.8c-0.2-0.3-0.3-0.7-0.3-1.2
	c0-0.6,0.2-1.1,0.6-1.4c0.4-0.3,1-0.5,1.7-0.5c0.4,0,0.7,0,1,0.1c0.3,0.1,0.6,0.2,1,0.4l-0.5,1.3c-0.2-0.1-0.5-0.2-0.7-0.3
	c-0.2-0.1-0.5-0.1-0.7-0.1c-0.4,0-0.6,0.1-0.6,0.4c0,0.1,0,0.2,0.1,0.3c0,0.1,0.1,0.2,0.3,0.2c0.2,0.1,0.4,0.2,0.7,0.4
	c0.4,0.2,0.8,0.5,1.1,0.8C52,34.3,52.2,34.7,52.2,35.3z M60.3,34.7c0,0.5-0.1,1-0.3,1.4c-0.2,0.4-0.5,0.7-1,0.9s-0.9,0.3-1.5,0.3
	c-0.4,0-0.8,0-1.1-0.1s-0.7-0.2-1-0.4V35c0.4,0.2,0.7,0.4,1.1,0.5c0.4,0.1,0.7,0.2,1,0.2s0.6-0.1,0.7-0.2s0.2-0.3,0.2-0.6
	c0-0.2,0-0.3-0.1-0.4c-0.1-0.1-0.2-0.3-0.4-0.4c-0.2-0.1-0.4-0.3-0.8-0.5c-0.3-0.2-0.6-0.4-0.9-0.6s-0.5-0.5-0.6-0.8
	c-0.2-0.3-0.2-0.7-0.2-1.2c0-0.8,0.2-1.4,0.7-1.8c0.5-0.4,1.1-0.7,2-0.7c0.4,0,0.8,0.1,1.1,0.2c0.4,0.1,0.7,0.2,1.1,0.4l-0.5,1.6
	c-0.6-0.3-1.2-0.5-1.7-0.5c-0.3,0-0.5,0.1-0.6,0.2c-0.1,0.1-0.2,0.3-0.2,0.5c0,0.2,0,0.3,0.1,0.5c0.1,0.1,0.2,0.3,0.4,0.4
	s0.5,0.3,0.8,0.5c0.6,0.3,1,0.6,1.3,1S60.3,34.1,60.3,34.7z M64,35.8c0.1,0,0.3,0,0.4-0.1s0.3-0.1,0.5-0.2V37
	c-0.2,0.1-0.4,0.2-0.7,0.2c-0.2,0.1-0.5,0.1-0.8,0.1c-0.6,0-1.1-0.2-1.4-0.5c-0.3-0.3-0.5-0.9-0.5-1.7v-3.1h-0.7v-0.9l0.9-0.5
	l0.5-1.4h1.2v1.4h1.4v1.5h-1.4v3C63.4,35.6,63.6,35.8,64,35.8z M71.1,33.9c0,0.6-0.1,1.2-0.3,1.7c-0.2,0.5-0.5,0.9-0.9,1.2
	c-0.4,0.3-0.9,0.5-1.6,0.5c-0.6,0-1.1-0.2-1.5-0.5c-0.4-0.3-0.7-0.7-0.9-1.2c-0.2-0.5-0.3-1.1-0.3-1.7c0-0.7,0.1-1.3,0.3-1.8
	c0.2-0.5,0.5-0.9,0.9-1.2c0.4-0.3,0.9-0.4,1.6-0.4c0.8,0,1.5,0.3,2,0.9C70.9,32,71.1,32.8,71.1,33.9z M67.4,33.9
	c0,0.6,0.1,1.1,0.2,1.4c0.1,0.3,0.4,0.5,0.7,0.5c0.3,0,0.6-0.2,0.7-0.5c0.1-0.3,0.2-0.8,0.2-1.5s-0.1-1.1-0.2-1.4
	c-0.1-0.3-0.4-0.5-0.7-0.5C67.7,32,67.4,32.7,67.4,33.9z M75.6,30.5c0.2,0,0.4,0,0.6,0.1L76,32.5c-0.1,0-0.2,0-0.3-0.1
	c-0.1,0-0.2,0-0.3,0c-0.4,0-0.7,0.1-0.9,0.4c-0.2,0.2-0.3,0.6-0.3,1.1v3.3h-1.8v-6.6h1.4l0.3,1.1h0.1c0.1-0.3,0.3-0.6,0.6-0.8
	C74.9,30.6,75.2,30.5,75.6,30.5z M76.3,30.6h1.9l0.9,3.3c0,0.2,0.1,0.4,0.1,0.6c0,0.2,0.1,0.4,0.1,0.5h0c0-0.2,0-0.3,0.1-0.5
	c0-0.2,0.1-0.4,0.1-0.6l0.8-3.3h1.9l-2.2,7.2c-0.3,0.8-0.6,1.4-1,1.8c-0.4,0.4-0.9,0.5-1.5,0.5c-0.2,0-0.3,0-0.4,0s-0.3,0-0.4-0.1
	v-1.5c0.2,0,0.3,0.1,0.5,0.1c0.3,0,0.5-0.1,0.6-0.3c0.1-0.2,0.3-0.5,0.4-0.9l0.1-0.3L76.3,30.6z M88,28.7c0.9,0,1.6,0.2,2.1,0.7
	c0.5,0.5,0.7,1.1,0.7,2c0,0.6-0.1,1.1-0.3,1.5c-0.2,0.4-0.5,0.8-0.9,1s-1,0.4-1.6,0.4h-0.5v3h-1.9v-8.6H88z M87.9,30.3h-0.5v2.4h0.3
	c0.4,0,0.7-0.1,0.9-0.3c0.2-0.2,0.3-0.5,0.3-1C88.9,30.6,88.6,30.3,87.9,30.3z M93.8,37.2h-1.8v-9.1h1.8V37.2z M97.8,30.5
	c0.7,0,1.3,0.2,1.6,0.6s0.6,1,0.6,1.8v4.4h-1.3l-0.3-0.9h0c-0.2,0.3-0.5,0.6-0.7,0.8c-0.3,0.2-0.6,0.2-1.1,0.2
	c-0.4,0-0.7-0.1-0.9-0.3s-0.4-0.4-0.6-0.8s-0.2-0.7-0.2-1.1c0-0.7,0.2-1.2,0.6-1.6c0.4-0.3,1-0.5,1.8-0.6l0.9,0v-0.2
	c0-0.6-0.3-0.9-0.8-0.9c-0.2,0-0.5,0-0.7,0.1c-0.3,0.1-0.5,0.2-0.8,0.4l-0.5-1.3c0.3-0.2,0.7-0.3,1.1-0.4S97.3,30.5,97.8,30.5z
	 M98.2,34.2l-0.5,0c-0.4,0-0.6,0.1-0.8,0.3c-0.2,0.2-0.2,0.4-0.2,0.7c0,0.5,0.2,0.8,0.6,0.8c0.3,0,0.5-0.1,0.6-0.3
	c0.2-0.2,0.3-0.5,0.3-0.8V34.2z M103.9,37.4c-0.9,0-1.6-0.3-2-0.8c-0.5-0.5-0.7-1.4-0.7-2.6c0-1,0.2-1.9,0.7-2.5
	c0.5-0.6,1.2-0.9,2.1-0.9c0.4,0,0.7,0,1,0.1c0.3,0.1,0.6,0.2,0.8,0.3l-0.5,1.4c-0.2-0.1-0.4-0.2-0.6-0.3s-0.4-0.1-0.6-0.1
	c-0.3,0-0.6,0.2-0.8,0.5c-0.2,0.3-0.3,0.8-0.3,1.4c0,1.2,0.4,1.9,1.1,1.9c0.5,0,1-0.2,1.5-0.6v1.5C105.1,37.2,104.6,37.4,103.9,37.4
	z M109.2,30.5c0.8,0,1.4,0.3,1.9,0.8c0.5,0.5,0.7,1.3,0.7,2.2v0.9h-3.4c0,1,0.4,1.5,1.3,1.5c0.3,0,0.6,0,0.9-0.1
	c0.3-0.1,0.6-0.2,0.9-0.4v1.5c-0.6,0.3-1.2,0.5-2,0.5c-1,0-1.7-0.3-2.2-0.9s-0.7-1.4-0.7-2.5c0-1.1,0.2-2,0.7-2.6
	C107.7,30.8,108.3,30.5,109.2,30.5z M109.2,31.9c-0.3,0-0.5,0.1-0.6,0.3c-0.2,0.2-0.3,0.5-0.3,1h1.8c0-0.4-0.1-0.7-0.2-1
	S109.5,31.9,109.2,31.9z M114.7,28.1v1.8c0,0.3,0,0.6,0,0.8s0,0.5-0.1,0.7h0.1c0.3-0.6,0.8-0.9,1.6-0.9c0.6,0,1.1,0.2,1.4,0.6
	c0.3,0.4,0.5,1,0.5,1.8v4.3h-1.8v-3.8c0-0.9-0.2-1.4-0.7-1.4c-0.4,0-0.6,0.2-0.8,0.5c-0.1,0.3-0.2,0.9-0.2,1.6v3.1h-1.8v-9.1H114.7z
	 M124.9,33.9c0,0.6-0.1,1.2-0.3,1.7c-0.2,0.5-0.5,0.9-0.9,1.2c-0.4,0.3-0.9,0.5-1.6,0.5c-0.6,0-1.1-0.2-1.5-0.5
	c-0.4-0.3-0.7-0.7-0.9-1.2c-0.2-0.5-0.3-1.1-0.3-1.7c0-0.7,0.1-1.3,0.3-1.8c0.2-0.5,0.5-0.9,0.9-1.2c0.4-0.3,0.9-0.4,1.6-0.4
	c0.8,0,1.5,0.3,2,0.9C124.6,32,124.9,32.8,124.9,33.9z M121.2,33.9c0,0.6,0.1,1.1,0.2,1.4c0.1,0.3,0.4,0.5,0.7,0.5
	c0.3,0,0.6-0.2,0.7-0.5c0.1-0.3,0.2-0.8,0.2-1.5s-0.1-1.1-0.2-1.4c-0.1-0.3-0.4-0.5-0.7-0.5C121.5,32,121.2,32.7,121.2,33.9z
	 M127.9,37.2h-1.8v-9.1h1.8V37.2z M131.1,37.4c-0.7,0-1.2-0.3-1.5-0.9c-0.4-0.6-0.6-1.4-0.6-2.5c0-1.1,0.2-1.9,0.6-2.5
	c0.4-0.6,0.9-0.9,1.5-0.9c0.7,0,1.2,0.3,1.5,1h0.1c0-0.2,0-0.5,0-0.7c0-0.2,0-0.4,0-0.6v-2.1h1.8v9.1H133l-0.3-0.7h-0.1
	c-0.2,0.3-0.4,0.5-0.6,0.6C131.8,37.3,131.5,37.4,131.1,37.4z M131.7,35.9c0.3,0,0.6-0.1,0.7-0.4c0.1-0.3,0.2-0.7,0.2-1.3v-0.3
	c0-0.6-0.1-1-0.2-1.3c-0.1-0.3-0.4-0.4-0.7-0.4c-0.6,0-0.9,0.6-0.9,1.9C130.9,35.2,131.2,35.9,131.7,35.9z M138.3,30.5
	c0.8,0,1.4,0.3,1.9,0.8c0.5,0.5,0.7,1.3,0.7,2.2v0.9h-3.4c0,1,0.4,1.5,1.3,1.5c0.3,0,0.6,0,0.9-0.1c0.3-0.1,0.6-0.2,0.9-0.4v1.5
	c-0.6,0.3-1.2,0.5-2,0.5c-1,0-1.7-0.3-2.2-0.9s-0.7-1.4-0.7-2.5c0-1.1,0.2-2,0.7-2.6C136.8,30.8,137.5,30.5,138.3,30.5z M138.3,31.9
	c-0.3,0-0.5,0.1-0.6,0.3c-0.2,0.2-0.3,0.5-0.3,1h1.8c0-0.4-0.1-0.7-0.2-1S138.6,31.9,138.3,31.9z M145.3,30.5c0.2,0,0.4,0,0.6,0.1
	l-0.2,1.9c-0.1,0-0.2,0-0.3-0.1c-0.1,0-0.2,0-0.3,0c-0.4,0-0.7,0.1-0.9,0.4c-0.2,0.2-0.3,0.6-0.3,1.1v3.3H142v-6.6h1.4l0.3,1.1h0.1
	c0.1-0.3,0.3-0.6,0.6-0.8C144.6,30.6,144.9,30.5,145.3,30.5z"/>
</svg>
