<?xml version="1.0" encoding="utf-8"?>
<!-- Generator: Adobe Illustrator 24.3.0, SVG Export Plug-In . SVG Version: 6.00 Build 0)  -->
<svg version="1.1" id="Layer_1" xmlns="http://www.w3.org/2000/svg" xmlns:xlink="http://www.w3.org/1999/xlink" x="0px" y="0px"
	 viewBox="0 0 298.1 296.4" style="enable-background:new 0 0 298.1 296.4;" xml:space="preserve">
<path style="opacity:0.3;fill:#8863A8;" d="M149.2,0.1v296.3c-0.3,0.1-0.6,0.1-0.9,0.1c-9.5,0-17.2-7.7-17.2-17.2
	c0-5.4,2.5-10.2,6.4-13.4v-22.4c-0.4-0.3-0.8-0.6-1.3-0.7c-8.6-1.1-16.9-3.3-24.6-6.5c-2.4-0.2-5.7,1.9-8,4.3
	c-2.6,3.9-4.5,8.1-5.7,12.7c3,5.2,3.1,11.7,0,17.2c-4.7,8.2-15.3,11.1-23.5,6.3c-8.3-4.7-11.1-15.3-6.3-23.5
	c3.3-5.7,9.4-8.8,15.6-8.6c3.2-3.3,5.9-7,7.9-11c0.8-3,1.1-6.8-0.1-8.8c-7.3-5.4-13.7-11.8-19.2-19c-2.1-1.1-5.7-0.8-8.7-0.1
	c-4.1,2.1-7.9,4.8-11.3,8.2c0,6-3.1,11.8-8.6,15c-8.3,4.7-18.8,1.9-23.6-6.3c-4.8-8.3-1.9-18.8,6.3-23.6c5.7-3.3,12.4-3,17.6,0.2
	c4.6-1.3,8.8-3.1,12.6-5.7c2.1-2.1,4.1-5,4.3-7.4c-3.6-8.3-6-17.2-7.1-26.5c-1.3-1.9-4.5-3.5-7.4-4.2c-4.6-0.3-9.2,0.2-13.8,1.4
	c-3,5.3-8.6,8.9-15.1,8.9c-9.5,0-17.2-7.7-17.2-17.2c0-9.5,7.7-17.2,17.2-17.2c6.4,0,12,3.5,15,8.7c4.6,1.2,9.3,1.7,13.9,1.4
	c2.9-0.8,6.1-2.3,7.4-4.2c1.1-9.3,3.5-18.3,7.1-26.5c-0.2-2.3-2.2-5.3-4.3-7.4c-3.8-2.5-8-4.4-12.5-5.6c-5.2,3.3-12.1,3.6-17.8,0.3
	c-8.3-4.8-11.1-15.3-6.3-23.6c4.8-8.2,15.3-11.1,23.6-6.3c5.5,3.2,8.5,8.9,8.6,14.8c3.4,3.4,7.2,6.2,11.4,8.3c3,0.8,6.6,1,8.7,0
	c5.5-7.2,11.9-13.7,19.2-19.1c1.2-2,0.9-5.8,0.1-8.8c-2-4-4.6-7.6-7.8-10.9c-6.3,0.3-12.5-2.8-15.8-8.6C63,35.2,65.8,24.7,74,19.9
	c8.2-4.8,18.8-1.9,23.6,6.3c3.1,5.4,3,11.8,0.1,17c1.3,4.6,3.2,8.9,5.7,12.8c2.3,2.3,5.7,4.5,8,4.3c7.8-3.2,16-5.4,24.6-6.5
	c0.5-0.1,0.9-0.3,1.3-0.7V30.8c-4-3.2-6.6-8-6.6-13.5c0-9.5,7.7-17.2,17.2-17.2C148.5,0,148.9,0,149.2,0.1z"/>
<polygon style="opacity:0.5;fill:#1494C1;" points="298.1,86.8 298.1,209.6 211.3,296.4 149.2,296.4 149.2,243.9 189.6,243.9 
	245.6,187.8 245.6,108.6 189.6,52.5 149.2,52.5 149.2,0 211.3,0 "/>
</svg>
