<?xml version="1.0" encoding="utf-8"?>
<!-- Generator: Adobe Illustrator 24.3.0, SVG Export Plug-In . SVG Version: 6.00 Build 0)  -->
<svg version="1.1" id="Layer_1" xmlns="http://www.w3.org/2000/svg" xmlns:xlink="http://www.w3.org/1999/xlink" x="0px" y="0px"
	 viewBox="0 0 304.6 64.9" style="enable-background:new 0 0 304.6 64.9;" xml:space="preserve">
<path style="fill:#4C2668;" d="M30.5,0v60.5c-0.1,0-0.1,0-0.2,0c-1.9,0-3.5-1.6-3.5-3.5c0-1.1,0.5-2.1,1.3-2.7v-4.6
	c-0.1-0.1-0.2-0.1-0.3-0.1c-1.8-0.2-3.4-0.7-5-1.3c-0.5,0-1.2,0.4-1.6,0.9c-0.5,0.8-0.9,1.7-1.2,2.6c0.6,1.1,0.6,2.4,0,3.5
	c-1,1.7-3.1,2.3-4.8,1.3c-1.7-1-2.3-3.1-1.3-4.8c0.7-1.2,1.9-1.8,3.2-1.8c0.7-0.7,1.2-1.4,1.6-2.3c0.2-0.6,0.2-1.4,0-1.8
	c-1.5-1.1-2.8-2.4-3.9-3.9c-0.4-0.2-1.2-0.2-1.8,0c-0.8,0.4-1.6,1-2.3,1.7c0,1.2-0.6,2.4-1.8,3.1c-1.7,1-3.8,0.4-4.8-1.3
	c-1-1.7-0.4-3.8,1.3-4.8C6.5,40,7.9,40,9,40.7c0.9-0.3,1.8-0.6,2.6-1.2c0.4-0.4,0.8-1,0.9-1.5c-0.7-1.7-1.2-3.5-1.5-5.4
	c-0.3-0.4-0.9-0.7-1.5-0.9c-0.9-0.1-1.9,0-2.8,0.3c-0.6,1.1-1.8,1.8-3.1,1.8c-1.9,0-3.5-1.6-3.5-3.5c0-1.9,1.6-3.5,3.5-3.5
	c1.3,0,2.5,0.7,3.1,1.8c1,0.3,1.9,0.4,2.9,0.3c0.6-0.2,1.2-0.5,1.5-0.9c0.2-1.9,0.7-3.7,1.5-5.4c0-0.5-0.4-1.1-0.9-1.5
	c-0.8-0.5-1.6-0.9-2.6-1.1c-1.1,0.7-2.5,0.7-3.6,0.1c-1.7-1-2.3-3.1-1.3-4.8c1-1.7,3.1-2.3,4.8-1.3c1.1,0.6,1.7,1.8,1.8,3
	c0.7,0.7,1.5,1.3,2.3,1.7c0.6,0.2,1.3,0.2,1.8,0c1.1-1.5,2.4-2.8,3.9-3.9c0.2-0.4,0.2-1.2,0-1.8c-0.4-0.8-0.9-1.6-1.6-2.2
	c-1.3,0.1-2.5-0.6-3.2-1.8c-1-1.7-0.4-3.8,1.3-4.8c1.7-1,3.8-0.4,4.8,1.3c0.6,1.1,0.6,2.4,0,3.5c0.3,1,0.6,1.8,1.2,2.6
	c0.5,0.5,1.2,0.9,1.6,0.9c1.6-0.7,3.3-1.1,5-1.3c0.1,0,0.2-0.1,0.3-0.1V6.3c-0.8-0.6-1.3-1.6-1.3-2.8c0-1.9,1.6-3.5,3.5-3.5
	C30.3,0,30.4,0,30.5,0z"/>
<polygon style="fill:#1494C1;" points="60.8,17.7 60.8,42.8 43.1,60.6 30.4,60.6 30.4,49.8 38.6,49.8 50.1,38.4 50.1,22.2 
	38.6,10.7 30.4,10.7 30.4,0 43.1,0 "/>
<path style="fill:#4C2668;" d="M85.8,34.7c-3.1,0-5.7-0.7-7.7-2c-2.1-1.3-3.6-3.2-4.6-5.6c-1-2.4-1.5-5.2-1.5-8.4
	c0-3.1,0.5-5.9,1.6-8.2c1.1-2.4,2.6-4.2,4.7-5.6c2.1-1.3,4.6-2,7.7-2c3.1,0,5.4,0.5,6.9,1.5c1.5,1,2.3,2.2,2.3,3.5
	c0,1.1-0.4,1.9-1.3,2.6c-0.9,0.7-2.1,1-3.8,1c0-1-0.1-1.9-0.4-2.8c-0.3-0.9-0.8-1.7-1.4-2.2c-0.6-0.6-1.5-0.9-2.7-0.9
	c-2.5,0-4.3,1.1-5.3,3.4c-1,2.3-1.5,5.5-1.5,9.7c0,4.2,0.6,7.4,1.8,9.5s3.3,3.2,6.2,3.2c1.3,0,2.5-0.2,3.4-0.6s1.8-0.9,2.4-1.6
	c0.7-0.6,1.2-1.3,1.7-1.9c0.5,0.4,0.7,1,0.7,1.8c0,0.8-0.3,1.6-0.8,2.5c-0.6,0.9-1.5,1.6-2.9,2.2C90,34.4,88.1,34.7,85.8,34.7z
	 M97.5,34.2V32H98c0.7,0,1.3-0.2,1.9-0.5s0.9-1.1,0.9-2.4V6.3c0-0.8-0.2-1.4-0.5-1.7c-0.3-0.4-0.7-0.6-1.1-0.7
	c-0.4-0.1-0.9-0.2-1.2-0.2h-0.5V1.4h9.6v27.7c0,0.8,0.1,1.5,0.4,1.9c0.3,0.4,0.6,0.7,1.1,0.8c0.4,0.1,0.9,0.2,1.3,0.2h0.5v2.2H97.5z
	 M122.4,34.7c-3.5,0-6.1-1-7.8-3.1c-1.8-2.1-2.7-5-2.7-8.8c0-4.1,0.9-7.1,2.6-9.2c1.8-2.1,4.2-3.1,7.4-3.1c2.9,0,5.2,0.9,6.9,2.7
	c1.7,1.8,2.6,4.4,2.6,7.8v2.1h-13.2c0.1,2.9,0.6,5.1,1.5,6.4c0.9,1.4,2.3,2,4,2c1.4,0,2.5-0.3,3.5-1c0.9-0.7,1.6-1.5,2.1-2.5
	c0.8,0.4,1.2,1,1.2,2c0,0.8-0.3,1.5-0.9,2.2c-0.6,0.7-1.5,1.3-2.7,1.8C125.8,34.4,124.3,34.7,122.4,34.7z M118.3,20.4h6.9
	c0-2.2-0.2-4-0.7-5.3c-0.5-1.3-1.3-1.9-2.4-1.9c-1.1,0-2,0.6-2.7,1.9C118.7,16.3,118.3,18.1,118.3,20.4z M140.6,34.7
	c-1.8,0-3.3-0.6-4.5-1.7s-1.8-2.9-1.8-5.3c0-2.3,0.7-4.1,2.2-5.2c1.5-1.1,3.7-1.7,6.7-1.8l3.3-0.1v-2.4c0-1.5-0.2-2.7-0.5-3.6
	c-0.3-0.9-1-1.4-2.1-1.4c-1,0-1.7,0.4-2.1,1.3c-0.4,0.9-0.6,2-0.6,3.4c-1.8,0-3.1-0.2-4-0.7c-0.9-0.4-1.3-1.2-1.3-2.2
	c0-1,0.4-1.8,1.1-2.5c0.8-0.7,1.8-1.1,3-1.4s2.7-0.5,4.2-0.5c2.8,0,5,0.6,6.4,1.7c1.4,1.1,2.1,3,2.1,5.7v11c0,1.2,0.2,2,0.5,2.4
	c0.4,0.4,1,0.6,1.9,0.6h0.1v2.2h-7.6l-0.9-3.1h-0.3c-0.6,0.8-1.2,1.4-1.7,1.9c-0.5,0.5-1.1,0.9-1.8,1.2
	C142.4,34.5,141.6,34.7,140.6,34.7z M142.8,31.6c1.2,0,2.1-0.5,2.7-1.6c0.7-1,1-2.4,1-4.1v-3.3l-1.8,0.1c-1.6,0.1-2.7,0.6-3.3,1.4
	c-0.6,0.8-0.9,2-0.9,3.6C140.6,30.4,141.3,31.6,142.8,31.6z M157.9,34.2V32h0.1c0.9,0,1.6-0.2,2.2-0.5c0.6-0.4,0.9-1.2,0.9-2.6V16.2
	c0-1.3-0.3-2.1-0.8-2.4c-0.5-0.3-1.2-0.5-2.1-0.5h-0.1v-2.2h8.2l0.8,3.8h0.2c0.5-1.4,1.2-2.4,2.1-3.2c0.9-0.7,2.1-1.1,3.7-1.1
	c1.5,0,2.7,0.3,3.4,1s1.1,1.5,1.1,2.6c0,1.3-0.5,2.2-1.4,2.9c-0.9,0.7-2.2,1-3.8,1c0-1.2-0.1-2.1-0.4-2.7c-0.3-0.6-0.8-0.9-1.6-0.9
	c-0.7,0-1.2,0.3-1.6,0.8c-0.4,0.5-0.7,1.1-1,1.9s-0.4,1.6-0.5,2.4c-0.1,0.8-0.1,1.6-0.1,2.2v7.3c0,1.3,0.3,2.1,0.8,2.4
	c0.5,0.3,1.2,0.5,2,0.5h1.3v2.2H157.9z M204.8,34.7c-3.1,0-5.7-0.7-7.7-2c-2.1-1.3-3.6-3.2-4.6-5.6c-1-2.4-1.5-5.2-1.5-8.4
	c0-3.1,0.5-5.9,1.6-8.2c1.1-2.4,2.6-4.2,4.7-5.6c2.1-1.3,4.6-2,7.7-2c3.1,0,5.4,0.5,6.9,1.5c1.5,1,2.3,2.2,2.3,3.5
	c0,1.1-0.4,1.9-1.3,2.6c-0.9,0.7-2.1,1-3.8,1c0-1-0.1-1.9-0.4-2.8c-0.3-0.9-0.8-1.7-1.4-2.2c-0.6-0.6-1.5-0.9-2.7-0.9
	c-2.5,0-4.3,1.1-5.3,3.4c-1,2.3-1.5,5.5-1.5,9.7c0,4.2,0.6,7.4,1.8,9.5s3.3,3.2,6.2,3.2c1.3,0,2.5-0.2,3.4-0.6s1.8-0.9,2.4-1.6
	c0.7-0.6,1.2-1.3,1.7-1.9c0.5,0.4,0.7,1,0.7,1.8c0,0.8-0.3,1.6-0.8,2.5c-0.6,0.9-1.5,1.6-2.9,2.2C209,34.4,207.2,34.7,204.8,34.7z
	 M227.6,34.7c-3.3,0-5.8-1-7.7-3c-1.9-2-2.8-5-2.8-9.1s0.9-7.1,2.7-9.1c1.8-2,4.4-3,7.9-3c3.2,0,5.8,1,7.6,3c1.9,2,2.8,5,2.8,9.1
	s-0.9,7.1-2.7,9.1C233.7,33.7,231,34.7,227.6,34.7z M227.7,32c1.5,0,2.6-0.8,3.2-2.4c0.6-1.6,0.9-3.9,0.9-7s-0.3-5.4-0.9-7
	c-0.6-1.6-1.7-2.4-3.2-2.4c-1.5,0-2.6,0.8-3.2,2.4c-0.6,1.6-0.9,3.9-0.9,7s0.3,5.4,1,7C225.1,31.2,226.1,32,227.7,32z M249,34.2
	l-6.5-18.9c-0.3-0.8-0.7-1.4-1.1-1.6c-0.5-0.3-1.1-0.4-2-0.4v-2.2h12.5v2.2h-1.5c-1,0-1.5,0.5-1.5,1.4c0,0.3,0,0.7,0.1,1
	c0.1,0.3,0.2,0.7,0.3,1l2.7,8.1c0.3,0.9,0.6,1.9,0.8,2.9c0.3,1,0.5,1.8,0.6,2.6c0.1-0.7,0.3-1.4,0.5-2.3c0.2-0.8,0.4-1.6,0.6-2.3
	l2.7-8.5c0.1-0.5,0.3-0.9,0.3-1.3c0.1-0.4,0.1-0.8,0.1-1.2c0-0.9-0.6-1.3-1.7-1.3h-1v-2.2h8.8v2.2h-0.8c-0.5,0-1,0.2-1.4,0.6
	c-0.4,0.4-0.8,1.2-1.2,2.6l-5.8,17.8H249z M265.6,34.2V32h0.4c0.7,0,1.3-0.2,2-0.5s0.9-1.1,0.9-2.4V16c0-0.8-0.1-1.4-0.4-1.8
	s-0.7-0.6-1.1-0.8s-0.9-0.2-1.3-0.2h-0.6v-2.2h9.6v18c0,1.2,0.3,2,0.9,2.4c0.6,0.3,1.3,0.5,1.9,0.5h0.5v2.2H265.6z M271.9,7.1
	c-1,0-1.8-0.2-2.5-0.7c-0.7-0.5-1-1.3-1-2.3c0-1.1,0.3-1.9,1-2.3c0.7-0.5,1.5-0.7,2.5-0.7c0.9,0,1.7,0.2,2.4,0.7
	c0.7,0.5,1.1,1.2,1.1,2.3c0,1-0.4,1.8-1.1,2.3C273.6,6.8,272.8,7.1,271.9,7.1z M288.5,34.7c-2.6,0-4.6-1-6.1-2.9
	c-1.4-1.9-2.1-5-2.1-9.1c0-4.2,0.7-7.2,2.1-9.2c1.4-2,3.4-2.9,6-2.9c1.5,0,2.8,0.3,3.7,1c0.9,0.7,1.7,1.5,2.2,2.5h0.3
	c-0.1-0.7-0.2-1.6-0.2-2.6c0-1-0.1-1.8-0.1-2.5V6.3c0-1.2-0.3-2-1-2.3c-0.6-0.3-1.4-0.5-2.3-0.5h-0.3V1.4h9.8v27.5
	c0,1.3,0.3,2.2,1,2.6c0.6,0.4,1.4,0.6,2.3,0.6h0.2v2.2h-7.9l-1.1-3.4h-0.3c-0.6,1.2-1.4,2.1-2.4,2.8
	C291.4,34.3,290.1,34.7,288.5,34.7z M290.3,31.6c1.6,0,2.6-0.8,3.2-2.2s0.9-3.7,0.9-6.7c0-2.9-0.3-5.1-0.9-6.7
	c-0.6-1.6-1.6-2.3-3.2-2.3c-1.3,0-2.3,0.8-2.9,2.4c-0.6,1.6-0.9,3.8-0.9,6.7c0,3,0.3,5.2,0.9,6.7C288,30.8,289,31.6,290.3,31.6z"/>
<path style="fill:#383838;" d="M80.4,45.8c-1,0-1.8,0.3-2.5,0.8s-1.2,1.3-1.6,2.2c-0.4,0.9-0.5,2-0.5,3.2c0,1.9,0.4,3.4,1.2,4.5
	c0.8,1.1,1.9,1.7,3.4,1.7c0.6,0,1.1-0.1,1.6-0.2c0.5-0.1,1-0.3,1.5-0.4v1.7c-0.5,0.2-1,0.4-1.5,0.5c-0.5,0.1-1.2,0.2-1.9,0.2
	c-1.4,0-2.5-0.3-3.5-1c-0.9-0.6-1.7-1.5-2.1-2.7c-0.5-1.2-0.7-2.6-0.7-4.2c0-1.5,0.3-2.9,0.8-4.1c0.5-1.2,1.2-2.1,2.2-2.8
	c1-0.7,2.2-1,3.6-1c1.4,0,2.6,0.3,3.7,0.8l-0.7,1.6c-0.4-0.2-0.9-0.4-1.4-0.5S81,45.8,80.4,45.8z M97.8,52c0,1.5-0.2,2.9-0.7,4.1
	c-0.5,1.2-1.2,2.1-2.1,2.8c-0.9,0.7-2.1,1-3.5,1c-1.4,0-2.6-0.3-3.6-1c-0.9-0.7-1.6-1.6-2.1-2.8c-0.4-1.2-0.7-2.6-0.7-4.1
	c0-2.5,0.5-4.4,1.6-5.8c1-1.4,2.6-2.1,4.7-2.1c1.4,0,2.6,0.3,3.5,1c0.9,0.7,1.6,1.6,2.1,2.8C97.6,49.1,97.8,50.5,97.8,52z M87.3,52
	c0,2,0.4,3.5,1.1,4.6c0.7,1.1,1.8,1.6,3.2,1.6c1.5,0,2.5-0.5,3.2-1.6c0.7-1.1,1-2.6,1-4.6c0-2-0.3-3.5-1-4.6
	c-0.7-1.1-1.8-1.6-3.2-1.6c-1.5,0-2.5,0.5-3.2,1.6S87.3,50.1,87.3,52z M110.4,44.4l-4.8,15.4h-2l-4.8-15.4h2l3,10
	c0.2,0.6,0.3,1.1,0.5,1.7c0.1,0.5,0.2,1.1,0.3,1.5c0.1-0.5,0.2-1,0.3-1.5c0.1-0.5,0.3-1.1,0.5-1.7l3-10H110.4z M117.2,59.7H112v-1.1
	l1.7-0.4V45.9l-1.7-0.4v-1.1h5.2v1.1l-1.7,0.4v12.4l1.7,0.4V59.7z M130.6,51.9c0,2.6-0.6,4.6-1.8,5.9c-1.2,1.3-3,2-5.2,2h-3.8V44.4
	h4.2c2.1,0,3.7,0.6,4.9,1.9C130,47.6,130.6,49.4,130.6,51.9z M128.6,52c0-2-0.4-3.5-1.3-4.5c-0.8-1-2.1-1.5-3.7-1.5h-2.1v12.1h1.8
	C126.8,58.1,128.6,56.1,128.6,52z M133.1,54.8v-1.7h5v1.7H133.1z M144.7,59.7h-1.8V49.2c0-0.6,0-1,0-1.5c0-0.4,0-0.8,0.1-1.3
	c-0.2,0.2-0.3,0.4-0.5,0.5c-0.2,0.2-0.4,0.4-0.7,0.6l-1.5,1.3l-1-1.2l3.9-3.3h1.6V59.7z M157.5,50.9c0,1.2-0.1,2.4-0.3,3.5
	c-0.2,1.1-0.5,2.1-1,2.9c-0.5,0.8-1.1,1.5-1.9,2c-0.8,0.5-1.8,0.7-3.1,0.7c-0.3,0-0.6,0-0.9-0.1s-0.7-0.1-0.9-0.2v-1.6
	c0.2,0.1,0.5,0.2,0.8,0.2c0.3,0,0.6,0.1,1,0.1c0.9,0,1.6-0.2,2.1-0.5c0.6-0.3,1-0.8,1.4-1.3c0.3-0.6,0.6-1.2,0.7-2
	c0.2-0.7,0.3-1.5,0.3-2.3h-0.1c-0.3,0.5-0.7,0.9-1.2,1.3c-0.5,0.3-1.2,0.5-2,0.5c-1.2,0-2.2-0.4-2.9-1.3c-0.7-0.9-1.1-2-1.1-3.5
	c0-1,0.2-1.9,0.5-2.7c0.4-0.8,0.9-1.4,1.5-1.8c0.7-0.4,1.5-0.6,2.4-0.6c1.4,0,2.5,0.6,3.3,1.7S157.5,48.7,157.5,50.9z M152.9,45.8
	c-0.8,0-1.4,0.3-1.9,0.9c-0.5,0.6-0.7,1.5-0.7,2.6c0,1,0.2,1.8,0.6,2.4s1.1,0.8,1.9,0.8c0.6,0,1.1-0.1,1.5-0.4
	c0.4-0.3,0.7-0.6,1-1.1c0.2-0.4,0.3-0.9,0.3-1.4c0-0.4-0.1-0.9-0.2-1.3c-0.1-0.5-0.3-0.9-0.5-1.3c-0.2-0.4-0.5-0.7-0.9-1
	S153.3,45.8,152.9,45.8z M175.3,44.4l-4.8,15.4h-2l-4.8-15.4h2l3,10c0.2,0.6,0.3,1.1,0.5,1.7c0.1,0.5,0.2,1.1,0.3,1.5
	c0.1-0.5,0.2-1,0.3-1.5c0.1-0.5,0.3-1.1,0.5-1.7l3-10H175.3z M180.2,48c1.3,0,2.2,0.3,2.8,1s0.9,1.6,0.9,2.9v7.8h-1.4l-0.3-1.6h-0.1
	c-0.4,0.6-0.9,1.1-1.4,1.4s-1.2,0.5-2,0.5c-1,0-1.8-0.3-2.4-0.9c-0.6-0.6-0.9-1.4-0.9-2.5c0-1.1,0.4-2,1.2-2.7s2-1,3.7-1l1.7-0.1
	v-0.7c0-0.9-0.2-1.6-0.5-2c-0.4-0.4-0.9-0.6-1.5-0.6c-0.5,0-1,0.1-1.5,0.2c-0.5,0.2-0.9,0.4-1.4,0.6l-0.6-1.4c0.5-0.3,1-0.5,1.7-0.7
	C178.9,48.1,179.6,48,180.2,48z M182.2,54.1l-1.5,0.1c-1.2,0-2,0.3-2.5,0.7c-0.5,0.4-0.7,1-0.7,1.7c0,0.7,0.2,1.2,0.5,1.5
	s0.8,0.5,1.3,0.5c0.8,0,1.5-0.3,2.1-0.8c0.5-0.6,0.8-1.4,0.8-2.5V54.1z M191.2,59.9c-1.4,0-2.6-0.5-3.5-1.5s-1.3-2.5-1.3-4.5
	c0-2,0.4-3.6,1.3-4.6c0.9-1,2.1-1.5,3.5-1.5c0.5,0,1,0.1,1.5,0.2c0.5,0.1,0.9,0.2,1.2,0.4l-0.6,1.5c-0.3-0.1-0.7-0.2-1.1-0.3
	c-0.4-0.1-0.8-0.2-1.1-0.2c-2,0-2.9,1.5-2.9,4.4c0,1.4,0.2,2.5,0.7,3.2s1.2,1.1,2.2,1.1c0.5,0,1-0.1,1.4-0.2
	c0.4-0.1,0.8-0.3,1.2-0.5v1.6C193.2,59.7,192.3,59.9,191.2,59.9z M200.3,59.9c-1.4,0-2.6-0.5-3.5-1.5s-1.3-2.5-1.3-4.5
	c0-2,0.4-3.6,1.3-4.6c0.9-1,2.1-1.5,3.5-1.5c0.5,0,1,0.1,1.5,0.2c0.5,0.1,0.9,0.2,1.2,0.4l-0.6,1.5c-0.3-0.1-0.7-0.2-1.1-0.3
	c-0.4-0.1-0.8-0.2-1.1-0.2c-2,0-2.9,1.5-2.9,4.4c0,1.4,0.2,2.5,0.7,3.2s1.2,1.1,2.2,1.1c0.5,0,1-0.1,1.4-0.2
	c0.4-0.1,0.8-0.3,1.2-0.5v1.6C202.2,59.7,201.3,59.9,200.3,59.9z M206.2,43.9c0.3,0,0.6,0.1,0.8,0.3c0.2,0.2,0.3,0.5,0.3,0.9
	c0,0.4-0.1,0.7-0.3,0.9c-0.2,0.2-0.5,0.3-0.8,0.3c-0.3,0-0.6-0.1-0.8-0.3c-0.2-0.2-0.3-0.5-0.3-0.9c0-0.4,0.1-0.7,0.3-0.9
	C205.6,44,205.9,43.9,206.2,43.9z M207.1,48.2v11.5h-1.8V48.2H207.1z M215.2,48c1.2,0,2.1,0.3,2.8,1s0.9,1.7,0.9,3.1v7.6h-1.8v-7.4
	c0-0.9-0.2-1.6-0.5-2.1s-0.9-0.7-1.6-0.7c-1.1,0-1.8,0.3-2.3,1s-0.6,1.7-0.6,3.2v6h-1.8V48.2h1.5l0.3,1.6h0.1c0.3-0.6,0.8-1,1.4-1.3
	C214,48.1,214.6,48,215.2,48z M226,48c0.9,0,1.7,0.2,2.3,0.7s1.1,1,1.5,1.8s0.5,1.7,0.5,2.7v1.2h-7c0,1.3,0.3,2.4,0.9,3
	c0.6,0.7,1.4,1,2.4,1c0.6,0,1.2-0.1,1.7-0.2s1-0.3,1.6-0.6v1.6c-0.5,0.3-1.1,0.4-1.6,0.6s-1.1,0.2-1.8,0.2c-1.6,0-2.8-0.5-3.7-1.6
	c-0.9-1-1.3-2.5-1.3-4.3c0-1.9,0.4-3.4,1.2-4.5C223.5,48.5,224.6,48,226,48z M226,49.5c-0.8,0-1.4,0.3-1.9,0.9s-0.7,1.4-0.8,2.5h5.1
	c0-1-0.2-1.8-0.6-2.4C227.5,49.8,226.9,49.5,226,49.5z M245.9,59.7h-7.7V44.4h7.7v1.7h-5.8v4.8h5.4v1.7h-5.4v5.5h5.8V59.7z
	 M251.4,53.8l-3.5-5.6h2l2.5,4.3l2.5-4.3h2l-3.5,5.6l3.7,5.9h-2l-2.7-4.5l-2.7,4.5h-2L251.4,53.8z M264.2,48c1.3,0,2.3,0.5,3.1,1.5
	c0.8,1,1.1,2.5,1.1,4.5c0,1.9-0.4,3.4-1.1,4.5c-0.8,1-1.8,1.5-3.1,1.5c-0.8,0-1.4-0.2-2-0.5s-1-0.7-1.3-1.2h-0.1
	c0,0.3,0.1,0.6,0.1,0.9s0,0.6,0,0.9v4.9h-1.8V48.2h1.5l0.3,1.6h0.1c0.3-0.5,0.7-1,1.3-1.3C262.8,48.2,263.4,48,264.2,48z
	 M263.9,49.5c-1,0-1.7,0.3-2.2,1c-0.4,0.7-0.7,1.7-0.7,3V54c0,1.5,0.2,2.6,0.6,3.3c0.4,0.7,1.2,1.1,2.2,1.1c0.9,0,1.6-0.4,2-1.2
	c0.4-0.8,0.7-1.9,0.7-3.2c0-1.4-0.2-2.5-0.7-3.2C265.5,49.9,264.8,49.5,263.9,49.5z M275.2,48c0.9,0,1.7,0.2,2.3,0.7s1.1,1,1.5,1.8
	s0.5,1.7,0.5,2.7v1.2h-7c0,1.3,0.3,2.4,0.9,3c0.6,0.7,1.4,1,2.4,1c0.6,0,1.2-0.1,1.7-0.2s1-0.3,1.6-0.6v1.6
	c-0.5,0.3-1.1,0.4-1.6,0.6s-1.1,0.2-1.8,0.2c-1.6,0-2.8-0.5-3.7-1.6c-0.9-1-1.3-2.5-1.3-4.3c0-1.9,0.4-3.4,1.2-4.5
	C272.6,48.5,273.7,48,275.2,48z M275.1,49.5c-0.8,0-1.4,0.3-1.9,0.9s-0.7,1.4-0.8,2.5h5.1c0-1-0.2-1.8-0.6-2.4
	C276.6,49.8,276,49.5,275.1,49.5z M286.8,48c0.4,0,0.9,0,1.2,0.1l-0.2,1.8c-0.2,0-0.3-0.1-0.5-0.1c-0.2,0-0.4,0-0.6,0
	c-0.5,0-1,0.2-1.4,0.5c-0.4,0.3-0.8,0.8-1,1.4c-0.3,0.6-0.4,1.3-0.4,2v6.1H282V48.2h1.5l0.2,2h0.1c0.3-0.6,0.7-1.2,1.3-1.6
	C285.5,48.2,286.1,48,286.8,48z M294.1,58.4c0.2,0,0.5,0,0.8-0.1c0.3,0,0.5-0.1,0.7-0.2v1.4c-0.2,0.1-0.5,0.2-0.8,0.2
	c-0.3,0.1-0.7,0.1-1,0.1c-0.8,0-1.5-0.2-2.1-0.8c-0.6-0.5-0.8-1.4-0.8-2.6v-6.9h-1.4v-0.9l1.5-0.6l0.6-2.5h1.1v2.6h2.8v1.5h-2.8v6.8
	c0,0.6,0.1,1.1,0.4,1.5C293.3,58.2,293.7,58.4,294.1,58.4z M304.6,56.6c0,1.1-0.4,1.9-1.1,2.5s-1.7,0.9-3,0.9
	c-0.7,0-1.3-0.1-1.9-0.2c-0.5-0.1-1-0.3-1.4-0.5v-1.7c0.4,0.2,0.9,0.4,1.5,0.6c0.6,0.2,1.2,0.3,1.8,0.3c0.8,0,1.4-0.2,1.8-0.5
	c0.4-0.3,0.6-0.7,0.6-1.2c0-0.4-0.2-0.8-0.5-1.1s-1-0.7-1.9-1.1c-0.6-0.3-1.2-0.6-1.7-0.9c-0.5-0.3-0.8-0.6-1.1-1.1
	c-0.3-0.4-0.4-0.9-0.4-1.5c0-1,0.4-1.7,1.1-2.2s1.7-0.8,2.8-0.8c0.6,0,1.2,0.1,1.7,0.2c0.5,0.1,1.1,0.3,1.5,0.6l-0.6,1.5
	c-0.4-0.2-0.9-0.4-1.3-0.5c-0.5-0.1-0.9-0.2-1.4-0.2c-0.7,0-1.2,0.1-1.5,0.4c-0.4,0.3-0.5,0.6-0.5,1c0,0.3,0.1,0.6,0.2,0.8
	c0.2,0.2,0.4,0.4,0.8,0.6c0.4,0.2,0.9,0.5,1.5,0.7c1,0.4,1.7,0.9,2.2,1.4C304.3,55,304.6,55.7,304.6,56.6z"/>
</svg>
