<?xml version="1.0" encoding="utf-8"?>
<!-- Generator: Adobe Illustrator 24.3.0, SVG Export Plug-In . SVG Version: 6.00 Build 0)  -->
<svg version="1.1" id="Layer_1" xmlns="http://www.w3.org/2000/svg" xmlns:xlink="http://www.w3.org/1999/xlink" x="0px" y="0px"
	 viewBox="0 0 677.5 196.2" style="enable-background:new 0 0 677.5 196.2;" xml:space="preserve">
<path style="fill:#4F3493;" d="M243,136.5c-11.3,0-20.7-2.2-28.2-6.7c-7.5-4.5-13.1-10.7-16.8-18.8c-3.7-8-5.5-17.4-5.5-28.3
	c0-10.5,1.9-19.8,5.7-27.8c3.8-8,9.4-14.3,16.9-18.8c7.4-4.5,16.7-6.8,27.8-6.8c11.2,0,19.5,1.6,25,4.9c5.5,3.3,8.3,7.3,8.3,12
	c0,3.7-1.6,6.7-4.7,9.1c-3.1,2.4-7.6,3.6-13.6,3.6c0-3.2-0.5-6.4-1.5-9.5c-1-3.1-2.7-5.7-5-7.7c-2.4-2-5.6-3.1-9.6-3.1
	c-9.3,0-15.7,3.8-19.3,11.5c-3.7,7.6-5.5,18.5-5.5,32.6c0,14.1,2.2,24.7,6.6,31.6c4.4,7,12,10.4,22.9,10.4c4.8,0,8.9-0.7,12.3-2.1
	c3.4-1.4,6.3-3.2,8.7-5.3c2.4-2.1,4.4-4.3,6.1-6.5c1.7,1.4,2.5,3.5,2.5,6.3c0,2.7-1,5.6-3.1,8.5s-5.5,5.5-10.3,7.6
	C257.8,135.5,251.2,136.5,243,136.5 M335.8,136.5c10.5,0,19.4-2.2,26.8-6.7c7.3-4.5,12.9-10.7,16.8-18.8c3.8-8,5.8-17.4,5.8-28.3
	c0-10.8-1.9-20.2-5.7-28.3c-3.8-8-9.4-14.3-16.7-18.7c-7.4-4.4-16.3-6.6-26.8-6.6c-11.2,0-20.4,2.2-27.7,6.6
	c-7.3,4.4-12.8,10.6-16.4,18.6c-3.7,8-5.5,17.4-5.5,28.2c0,10.8,1.8,20.2,5.5,28.3c3.7,8.1,9.1,14.4,16.4,18.8
	C315.5,134.3,324.7,136.5,335.8,136.5 M335.8,127c-9.1,0-15.5-3.9-19.3-11.7c-3.8-7.8-5.7-18.6-5.7-32.6c0-13.9,1.9-24.7,5.7-32.5
	c3.8-7.7,10.3-11.6,19.4-11.6c9.1,0,15.4,3.9,19.1,11.6c3.7,7.7,5.5,18.6,5.5,32.5c0,13.9-1.9,24.8-5.5,32.6
	C351.4,123.1,345,127,335.8,127 M445.1,135.1l29.8-85.9c1.6-4.5,2.8-7.4,3.7-8.7s2-2,3.4-2h7v-7.7h-37.7v7.7h7.6
	c1.8,0,3.2,0.4,4.2,1.2c1.1,0.8,1.6,2.1,1.6,3.7c0,0.8-0.2,1.9-0.6,3.4c-0.4,1.5-0.8,2.8-1.2,3.7l-15,44.4c-0.9,2.6-1.8,5.6-2.7,9
	c-0.9,3.4-1.6,6.3-2,8.7c-0.3-2.6-0.9-5.7-1.8-9.3c-0.9-3.6-1.7-6.5-2.5-8.8l-14.9-45c-0.3-0.8-0.6-1.8-0.9-3
	c-0.3-1.2-0.4-2.3-0.4-3.3c0-1.8,0.6-3.1,1.8-3.8c1.2-0.7,2.5-1,3.9-1h6.7v-7.7H387v7.7h3.4c1.5,0,3.1,0.5,4.9,1.4
	c1.8,0.9,3.2,2.8,4.2,5.6l31.1,89.5H445.1z M514.1,135.1v-7.7H508c-1.7,0-3.2-0.5-4.5-1.4c-1.4-0.9-2-2.4-2-4.3
	c0-1.2,0.2-2.6,0.6-4.2c0.4-1.6,0.8-3,1.2-4.2l4.2-12.6h35.5l5.1,14.6c0.3,0.8,0.6,1.7,0.9,2.8c0.3,1.1,0.4,2.3,0.4,3.4
	c0,2-0.7,3.5-2,4.4c-1.4,0.9-2.8,1.3-4.2,1.3h-5.7v7.7h48.2v-7.7h-2.6c-2.3,0-4.4-0.7-6.2-2.2c-1.8-1.5-3.4-4.2-4.9-8.3l-30.5-86
	h-20l-31.7,85.9c-1.6,4.4-3.2,7.3-5,8.6c-1.8,1.4-4,2-6.6,2h-1.8v7.7H514.1z M519.1,67.2c1.2-3.4,2.4-7.1,3.6-11
	c1.3-3.9,2.3-7.5,3.2-10.6c0.8,3.4,1.8,7.2,3,11.2c1.2,4.1,2.3,7.8,3.3,11.1l7.7,23.9h-29.5L519.1,67.2z M656.5,135.1v-7.7h-6.1
	c-2.1,0-3.9-0.5-5.3-1.6c-1.4-1.1-2.1-3.7-2.1-7.9V39.7h11.7c4.4,0,7.4,0.9,9.1,2.8c1.7,1.8,2.7,4.4,3.1,7.6l1,9.1h9.8l-0.7-28.3
	h-91l-0.7,28.3h9.8l1-9.1c0.4-3.2,1.4-5.7,3.1-7.6c1.7-1.8,4.7-2.8,9.1-2.8h11.7v78.1c0,4.2-0.7,6.8-2.1,7.9
	c-1.4,1.1-3.2,1.6-5.3,1.6h-6.1v7.7H656.5z"/>
<path style="fill:#D53027;" d="M83.7,0v166.2c-0.2,0-0.3,0-0.5,0c-5.3,0-9.7-4.3-9.7-9.7c0-3,1.4-5.7,3.6-7.5v-12.6
	c-0.2-0.2-0.5-0.3-0.7-0.4c-4.8-0.6-9.5-1.9-13.8-3.7c-1.3-0.1-3.2,1.1-4.5,2.4c-1.4,2.2-2.5,4.5-3.2,7.1c1.7,2.9,1.8,6.6,0,9.6
	c-2.7,4.6-8.6,6.2-13.2,3.5c-4.6-2.7-6.2-8.6-3.5-13.2c1.9-3.2,5.3-5,8.7-4.8c1.8-1.9,3.3-3.9,4.4-6.2c0.5-1.7,0.6-3.8-0.1-5
	c-4.1-3-7.7-6.6-10.8-10.7c-1.2-0.6-3.2-0.5-4.9,0c-2.3,1.2-4.4,2.7-6.3,4.6c0,3.3-1.7,6.6-4.8,8.4c-4.6,2.7-10.6,1.1-13.2-3.5
	c-2.7-4.6-1.1-10.5,3.5-13.2c3.2-1.8,6.9-1.7,9.9,0.1c2.6-0.7,4.9-1.8,7.1-3.2c1.2-1.2,2.3-2.8,2.4-4.1c-2-4.7-3.4-9.7-4-14.9
	c-0.7-1.1-2.5-2-4.1-2.4c-2.6-0.1-5.2,0.1-7.8,0.8c-1.7,3-4.8,5-8.5,5c-5.3,0-9.7-4.3-9.7-9.7c0-5.3,4.3-9.7,9.7-9.7
	c3.6,0,6.7,2,8.4,4.9c2.6,0.7,5.2,1,7.8,0.8c1.6-0.4,3.4-1.3,4.1-2.4c0.6-5.2,2-10.2,4-14.9c-0.1-1.3-1.2-3-2.4-4.1
	c-2.1-1.4-4.5-2.5-7-3.2c-2.9,1.8-6.8,2-10,0.2c-4.6-2.7-6.2-8.6-3.5-13.2c2.7-4.6,8.6-6.2,13.2-3.5c3.1,1.8,4.8,5,4.8,8.3
	c1.9,1.9,4.1,3.5,6.4,4.7c1.7,0.5,3.7,0.6,4.9,0c3.1-4.1,6.7-7.7,10.8-10.7c0.7-1.1,0.5-3.3,0.1-5c-1.1-2.2-2.6-4.3-4.4-6.1
	c-3.5,0.2-7-1.6-8.9-4.8c-2.7-4.6-1.1-10.5,3.5-13.2c4.6-2.7,10.5-1.1,13.2,3.5c1.7,3,1.7,6.6,0.1,9.5c0.7,2.6,1.8,5,3.2,7.2
	c1.3,1.3,3.2,2.5,4.5,2.4c4.4-1.8,9-3,13.8-3.7c0.3-0.1,0.5-0.2,0.7-0.4V17.3c-2.3-1.8-3.7-4.5-3.7-7.6c0-5.3,4.3-9.7,9.7-9.7
	C83.3,0,83.5,0,83.7,0"/>
<polygon style="fill:#4F3493;" points="167.2,48.7 167.2,117.6 118.6,166.3 83.7,166.3 83.7,136.8 106.4,136.8 137.8,105.4 
	137.8,60.9 106.4,29.5 83.7,29.5 83.7,0 118.6,0 "/>
<path style="fill:#383838;" d="M209.4,163.6c-1.4,0-2.6,0.5-3.5,1.4c-0.9,0.9-1.6,2.2-2.1,3.7c-0.5,1.6-0.7,3.3-0.7,5.3
	c0,3.2,0.6,5.8,1.7,7.6c1.1,1.8,2.7,2.7,4.8,2.7c0.9,0,1.7-0.1,2.5-0.3c0.8-0.2,1.6-0.5,2.3-0.8v3.4c-0.8,0.4-1.6,0.7-2.4,0.8
	c-0.9,0.2-1.8,0.3-2.9,0.3c-3.2,0-5.7-1.2-7.4-3.6c-1.7-2.4-2.6-5.8-2.6-10c0-2.6,0.4-4.9,1.2-7c0.8-2.1,1.9-3.7,3.4-4.9
	c1.5-1.2,3.4-1.8,5.6-1.8c2.2,0,4.1,0.5,5.9,1.5l-1.3,3.2c-0.7-0.4-1.4-0.7-2.1-1C211,163.7,210.2,163.6,209.4,163.6 M236.3,173.9
	c0-2.7-0.3-5-1-7.1c-0.7-2-1.8-3.7-3.2-4.8c-1.4-1.2-3.3-1.8-5.5-1.8c-3.3,0-5.8,1.2-7.4,3.5c-1.6,2.3-2.4,5.7-2.4,10.1
	c0,2.7,0.3,5,1,7.1c0.7,2.1,1.7,3.7,3.2,4.9c1.4,1.2,3.3,1.8,5.6,1.8c2.3,0,4.1-0.6,5.5-1.8c1.4-1.2,2.5-2.8,3.2-4.8
	C236,179,236.3,176.6,236.3,173.9 M220.7,173.9c0-3.3,0.5-5.9,1.5-7.7c1-1.8,2.4-2.7,4.4-2.7c2,0,3.4,0.9,4.4,2.6
	c0.9,1.8,1.4,4.3,1.4,7.7c0,3.4-0.5,5.9-1.4,7.7c-1,1.8-2.4,2.6-4.4,2.6c-2,0-3.4-0.9-4.4-2.6C221.2,179.8,220.7,177.3,220.7,173.9
	 M252.3,160.7l-4.4,16.9c-0.2,0.9-0.4,1.8-0.7,2.8c-0.2,1-0.4,1.9-0.5,2.7c-0.1-0.8-0.3-1.7-0.5-2.8c-0.2-1-0.4-1.9-0.6-2.8l-4.4-17
	h-3.9l7.3,26.6h4.2l7.4-26.6H252.3z M267.3,185.1l-2.7-0.8v-20.7l2.7-0.8v-2.2h-9.1v2.2l2.6,0.8v20.7l-2.6,0.8v2.2h9.1V185.1z
	 M287.9,173.6c0-4.2-0.9-7.4-2.8-9.6c-1.8-2.2-4.5-3.3-7.8-3.3h-6.6v26.6h6.1c3.6,0,6.3-1.2,8.2-3.5
	C287,181.5,287.9,178.1,287.9,173.6 M283.9,173.8c0,3.4-0.6,5.9-1.7,7.6c-1.2,1.7-3,2.6-5.4,2.6h-2.2v-20h2.6c2.2,0,3.9,0.8,5,2.4
	C283.3,168,283.9,170.4,283.9,173.8 M291.3,179h8.8v-3.5h-8.8V179z M310.8,160.7h-3.2l-6.7,6.2l2.1,2.3l2.5-2.3
	c0.8-0.7,1.4-1.3,1.8-1.9c0,0.8-0.1,1.6-0.1,2.4c0,0.8,0,1.6,0,2.5v17.4h3.8V160.7z M330.5,171.8c0-3.8-0.7-6.6-2-8.6
	c-1.4-2-3.2-2.9-5.5-2.9c-1.6,0-2.9,0.4-4,1.1c-1.1,0.8-1.9,1.8-2.5,3.2c-0.6,1.4-0.8,2.9-0.8,4.7c0,2.5,0.5,4.5,1.6,6
	c1.1,1.6,2.6,2.3,4.6,2.3c1.2,0,2.1-0.3,2.9-0.8c0.8-0.5,1.4-1.3,1.8-2.2h0.2c-0.1,1.8-0.3,3.4-0.7,4.9c-0.4,1.5-1.1,2.7-2.1,3.6
	c-1,0.9-2.3,1.3-3.9,1.3c-1.2,0-2.2-0.1-3-0.4v3.3c0.4,0.1,0.9,0.2,1.5,0.3c0.6,0.1,1.1,0.1,1.6,0.1c1.9,0,3.5-0.4,4.8-1.2
	c1.3-0.8,2.3-1.9,3.1-3.3c0.8-1.4,1.3-3.1,1.7-5C330.4,176.2,330.5,174.1,330.5,171.8 M323,163.6c0.7,0,1.3,0.2,1.8,0.6
	c0.5,0.4,0.9,1,1.1,1.6c0.3,0.6,0.5,1.3,0.6,2.1c0.1,0.7,0.2,1.4,0.2,2c0,0.7-0.1,1.5-0.4,2.2c-0.3,0.7-0.7,1.3-1.3,1.7
	c-0.6,0.4-1.3,0.7-2.1,0.7c-1.1,0-2-0.5-2.6-1.4c-0.6-0.9-0.9-2.2-0.9-3.9c0-1.9,0.3-3.3,0.9-4.2C321.1,164,322,163.6,323,163.6
	 M356.7,160.7l-4.4,16.9c-0.2,0.9-0.4,1.8-0.7,2.8c-0.2,1-0.4,1.9-0.5,2.7c-0.1-0.8-0.3-1.7-0.5-2.8c-0.2-1-0.4-1.9-0.6-2.8l-4.4-17
	h-3.9l7.3,26.6h4.2l7.4-26.6H356.7z M368.3,166.8c-1.1,0-2.2,0.1-3.2,0.4c-1,0.3-2,0.7-2.8,1.2l1.1,2.7c0.8-0.4,1.5-0.7,2.3-1
	c0.7-0.2,1.5-0.4,2.2-0.4c1,0,1.7,0.3,2.2,1c0.5,0.6,0.7,1.7,0.7,3.1v1.2l-2.7,0.1c-2.4,0.1-4.3,0.7-5.6,1.8
	c-1.3,1.1-1.9,2.6-1.9,4.7c0,1.7,0.4,3.2,1.3,4.3c0.9,1.2,2.1,1.7,3.8,1.7c1.3,0,2.3-0.3,3.1-0.8c0.8-0.5,1.6-1.3,2.2-2.4h0.1
	l0.6,2.8h2.7v-13.5c0-2.3-0.5-4-1.5-5.2C371.9,167.4,370.4,166.8,368.3,166.8 M370.7,179.4c0,1.7-0.4,3-1.1,3.9
	c-0.7,0.9-1.6,1.4-2.8,1.4c-0.8,0-1.4-0.3-1.9-0.8c-0.5-0.5-0.7-1.3-0.7-2.4c0-1.2,0.3-2.1,1-2.8c0.7-0.6,1.8-1,3.4-1.1l2-0.1V179.4
	z M385.4,187.6c1.7,0,3.2-0.4,4.4-1.2v-3.1c-0.6,0.3-1.3,0.6-2,0.8c-0.7,0.2-1.4,0.3-2.1,0.3c-2.8,0-4.2-2.4-4.2-7.2
	c0-4.9,1.4-7.3,4.2-7.3c0.5,0,1.1,0.1,1.7,0.2c0.6,0.2,1.1,0.4,1.7,0.7l1.1-3c-0.6-0.3-1.3-0.6-2-0.8c-0.8-0.2-1.6-0.3-2.5-0.3
	c-2.5,0-4.4,0.9-5.8,2.8c-1.3,1.8-2,4.4-2,7.8c0,3.5,0.7,6.1,2,7.8C381.1,186.8,382.9,187.6,385.4,187.6 M399.5,187.6
	c1.7,0,3.2-0.4,4.4-1.2v-3.1c-0.6,0.3-1.3,0.6-2,0.8c-0.7,0.2-1.4,0.3-2.1,0.3c-2.8,0-4.2-2.4-4.2-7.2c0-4.9,1.4-7.3,4.2-7.3
	c0.5,0,1.1,0.1,1.7,0.2c0.6,0.2,1.1,0.4,1.7,0.7l1.1-3c-0.6-0.3-1.3-0.6-2.1-0.8c-0.8-0.2-1.6-0.3-2.5-0.3c-2.5,0-4.4,0.9-5.8,2.8
	c-1.3,1.8-2,4.4-2,7.8c0,3.5,0.7,6.1,2,7.8C395.1,186.8,397,187.6,399.5,187.6 M408.8,159.5c-0.6,0-1.2,0.2-1.5,0.6
	c-0.4,0.4-0.6,1-0.6,1.7c0,0.8,0.2,1.3,0.6,1.7c0.4,0.4,0.9,0.6,1.5,0.6c0.6,0,1.1-0.2,1.5-0.6c0.4-0.4,0.6-1,0.6-1.7
	C410.8,160.3,410.1,159.5,408.8,159.5 M410.6,167.1h-3.7v20.1h3.7V167.1z M423.4,166.8c-1.1,0-2,0.3-2.9,0.8
	c-0.9,0.5-1.6,1.3-2.1,2.3h-0.2l-0.4-2.7h-2.9v20.1h3.6V177c0-2.4,0.3-4.2,0.9-5.4c0.6-1.1,1.6-1.7,3.1-1.7c1,0,1.8,0.4,2.3,1.2
	c0.5,0.8,0.7,1.9,0.7,3.5v12.6h3.7v-13.4c0-2.4-0.5-4.2-1.5-5.3C426.6,167.3,425.2,166.8,423.4,166.8 M439.9,166.8
	c-2.4,0-4.2,0.9-5.5,2.7c-1.3,1.8-1.9,4.4-1.9,7.8c0,3.1,0.7,5.6,2,7.5s3.4,2.8,6.1,2.8c2,0,3.8-0.4,5.4-1.3v-3.2
	c-0.8,0.5-1.7,0.9-2.5,1.1c-0.8,0.2-1.7,0.3-2.6,0.3c-3.1,0-4.7-2.2-4.8-6.6h10.7v-2.2c0-1.8-0.3-3.3-0.8-4.7
	c-0.5-1.4-1.3-2.4-2.4-3.2C442.6,167.2,441.4,166.8,439.9,166.8 M439.9,169.7c1.2,0,2.1,0.5,2.6,1.6c0.6,1.1,0.9,2.4,0.9,4h-7.2
	c0.1-1.9,0.5-3.3,1.1-4.2C437.9,170.2,438.8,169.7,439.9,169.7 M478.8,187.3l-7.6-26.6h-4.5l-7.5,26.6h4l2.1-7.7h7.4l2.1,7.7H478.8z
	 M466,176.1l2-8c0.2-0.6,0.3-1.3,0.5-2.1c0.1-0.7,0.3-1.4,0.4-2.1c0.1,0.6,0.2,1.3,0.4,2.1c0.2,0.8,0.3,1.5,0.5,2.1l2,8H466z
	 M489.7,166.8c-1.1,0-2,0.3-2.9,0.8c-0.9,0.5-1.6,1.3-2.1,2.3h-0.2l-0.4-2.7h-2.9v20.1h3.6V177c0-2.4,0.3-4.2,0.9-5.4
	c0.6-1.1,1.6-1.7,3.1-1.7c1,0,1.8,0.4,2.3,1.2c0.5,0.8,0.7,1.9,0.7,3.5v12.6h3.7v-13.4c0-2.4-0.5-4.2-1.5-5.3
	C492.9,167.3,491.5,166.8,489.7,166.8 M506,166.8c-1.1,0-2.2,0.1-3.2,0.4c-1,0.3-2,0.7-2.8,1.2l1.1,2.7c0.8-0.4,1.5-0.7,2.3-1
	c0.7-0.2,1.5-0.4,2.2-0.4c1,0,1.7,0.3,2.2,1c0.5,0.6,0.7,1.7,0.7,3.1v1.2l-2.7,0.1c-2.4,0.1-4.3,0.7-5.6,1.8
	c-1.3,1.1-1.9,2.6-1.9,4.7c0,1.7,0.4,3.2,1.3,4.3c0.9,1.2,2.1,1.7,3.8,1.7c1.3,0,2.3-0.3,3.1-0.8c0.8-0.5,1.6-1.3,2.2-2.4h0.1
	l0.6,2.8h2.7v-13.5c0-2.3-0.5-4-1.5-5.2C509.6,167.4,508.1,166.8,506,166.8 M508.4,179.4c0,1.7-0.4,3-1.1,3.9
	c-0.7,0.9-1.6,1.4-2.8,1.4c-0.8,0-1.4-0.3-1.9-0.8c-0.5-0.5-0.7-1.3-0.7-2.4c0-1.2,0.3-2.1,1-2.8c0.7-0.6,1.8-1,3.4-1.1l2-0.1V179.4
	z M516.3,187.3h3.7v-28.3h-3.7V187.3z M528.4,187.1l-0.6,2.2c-0.4,1.3-0.8,2.3-1.3,2.8c-0.5,0.6-1.1,0.9-2,0.9c-0.3,0-0.6,0-0.9-0.1
	c-0.3,0-0.6-0.1-0.8-0.2v3.2c0.3,0.1,0.7,0.2,1.1,0.2c0.4,0.1,0.8,0.1,1.2,0.1c1.6,0,2.9-0.5,3.9-1.5c1-1,1.8-2.6,2.4-4.7l6.7-22.8
	h-3.8l-3,11.1c-0.2,0.8-0.4,1.6-0.6,2.4c-0.2,0.8-0.3,1.5-0.4,2.1h-0.1c-0.1-0.7-0.2-1.5-0.4-2.3s-0.4-1.5-0.6-2.3l-3.1-11.1h-3.9
	L528.4,187.1z M551.2,181.7c0-1.6-0.4-2.8-1.3-3.6c-0.9-0.9-2-1.7-3.4-2.5c-1.4-0.7-2.3-1.3-2.9-1.8c-0.5-0.5-0.8-1.1-0.8-1.8
	s0.2-1.2,0.7-1.7c0.5-0.4,1.2-0.6,2.1-0.6c0.7,0,1.4,0.1,2.1,0.4c0.7,0.2,1.3,0.5,2,0.9l1.2-2.9c-0.8-0.5-1.7-0.8-2.5-1.1
	c-0.9-0.2-1.8-0.4-2.8-0.4c-1.9,0-3.4,0.5-4.6,1.5c-1.2,1-1.7,2.3-1.7,3.9c0,1.6,0.4,2.8,1.2,3.7c0.8,0.9,2,1.7,3.4,2.4
	c1.4,0.7,2.4,1.3,2.8,1.8c0.5,0.5,0.7,1.1,0.7,1.8c0,0.8-0.3,1.5-0.8,1.9c-0.5,0.5-1.3,0.7-2.3,0.7c-0.9,0-1.8-0.2-2.8-0.5
	c-0.9-0.3-1.7-0.7-2.4-1.1v3.6c0.7,0.3,1.5,0.6,2.3,0.8s1.9,0.3,2.9,0.3c2.1,0,3.7-0.5,4.8-1.5C550.6,185.1,551.2,183.6,551.2,181.7
	 M556,159.5c-0.6,0-1.2,0.2-1.5,0.6c-0.4,0.4-0.6,1-0.6,1.7c0,0.8,0.2,1.3,0.6,1.7c0.4,0.4,0.9,0.6,1.5,0.6c0.6,0,1.1-0.2,1.5-0.6
	c0.4-0.4,0.6-1,0.6-1.7C558.1,160.3,557.4,159.5,556,159.5 M557.8,167.1h-3.7v20.1h3.7V167.1z M573.1,181.7c0-1.6-0.4-2.8-1.3-3.6
	c-0.9-0.9-2-1.7-3.4-2.5c-1.4-0.7-2.3-1.3-2.9-1.8c-0.5-0.5-0.8-1.1-0.8-1.8s0.2-1.2,0.7-1.7c0.5-0.4,1.2-0.6,2.1-0.6
	c0.7,0,1.4,0.1,2.1,0.4c0.7,0.2,1.3,0.5,2,0.9l1.2-2.9c-0.8-0.5-1.7-0.8-2.5-1.1c-0.9-0.2-1.8-0.4-2.8-0.4c-1.9,0-3.4,0.5-4.6,1.5
	c-1.2,1-1.7,2.3-1.7,3.9c0,1.6,0.4,2.8,1.2,3.7c0.8,0.9,2,1.7,3.4,2.4c1.4,0.7,2.4,1.3,2.8,1.8c0.5,0.5,0.7,1.1,0.7,1.8
	c0,0.8-0.3,1.5-0.8,1.9c-0.5,0.5-1.3,0.7-2.3,0.7c-0.9,0-1.8-0.2-2.8-0.5c-0.9-0.3-1.7-0.7-2.4-1.1v3.6c0.7,0.3,1.5,0.6,2.3,0.8
	s1.8,0.3,2.9,0.3c2.1,0,3.7-0.5,4.8-1.5C572.5,185.1,573.1,183.6,573.1,181.7 M592.6,164h6v-3.4h-15.7v3.4h6v23.2h3.8V164z
	 M605.6,166.8c-2.4,0-4.2,0.9-5.5,2.7c-1.3,1.8-1.9,4.4-1.9,7.8c0,3.1,0.7,5.6,2,7.5s3.4,2.8,6.1,2.8c2,0,3.8-0.4,5.4-1.3v-3.2
	c-0.8,0.5-1.7,0.9-2.5,1.1c-0.8,0.2-1.7,0.3-2.6,0.3c-3.1,0-4.7-2.2-4.8-6.6h10.7v-2.2c0-1.8-0.3-3.3-0.8-4.7
	c-0.5-1.4-1.3-2.4-2.4-3.2C608.4,167.2,607.1,166.8,605.6,166.8 M605.6,169.7c1.2,0,2.1,0.5,2.6,1.6c0.6,1.1,0.9,2.4,0.9,4h-7.2
	c0.1-1.9,0.5-3.3,1.1-4.2C603.6,170.2,604.5,169.7,605.6,169.7 M622.5,166.8c-1.1,0-2.2,0.1-3.2,0.4c-1,0.3-2,0.7-2.8,1.2l1.1,2.7
	c0.8-0.4,1.5-0.7,2.3-1c0.7-0.2,1.5-0.4,2.2-0.4c1,0,1.7,0.3,2.2,1c0.5,0.6,0.7,1.7,0.7,3.1v1.2l-2.7,0.1c-2.4,0.1-4.3,0.7-5.6,1.8
	c-1.3,1.1-1.9,2.6-1.9,4.7c0,1.7,0.4,3.2,1.3,4.3c0.9,1.2,2.1,1.7,3.8,1.7c1.3,0,2.3-0.3,3.1-0.8c0.8-0.5,1.6-1.3,2.2-2.4h0.1
	l0.6,2.8h2.7v-13.5c0-2.3-0.5-4-1.5-5.2C626.1,167.4,624.6,166.8,622.5,166.8 M624.9,179.4c0,1.7-0.4,3-1.1,3.9
	c-0.7,0.9-1.6,1.4-2.8,1.4c-0.8,0-1.4-0.3-1.9-0.8c-0.5-0.5-0.7-1.3-0.7-2.4c0-1.2,0.3-2.1,1-2.8c0.7-0.6,1.8-1,3.4-1.1l2-0.1V179.4
	z M651.2,166.8c-2.3,0-4,1.1-5,3.2h-0.3c-0.3-1-0.9-1.7-1.7-2.3c-0.8-0.6-1.8-0.9-3.1-0.9c-1.1,0-2,0.3-2.9,0.8
	c-0.9,0.5-1.5,1.3-2,2.3h-0.2l-0.4-2.7h-2.9v20.1h3.6V177c0-2.2,0.2-3.9,0.7-5.2c0.5-1.3,1.5-1.9,2.9-1.9c0.9,0,1.6,0.4,2.1,1.1
	c0.5,0.7,0.7,1.9,0.7,3.5v12.7h3.7v-10.8c0-2.1,0.3-3.8,0.8-4.8c0.6-1.1,1.5-1.6,2.8-1.6c0.9,0,1.6,0.4,2.1,1.1
	c0.5,0.8,0.7,1.9,0.7,3.6v12.6h3.6V174c0-2.5-0.4-4.3-1.3-5.4C654.4,167.4,653,166.8,651.2,166.8"/>
</svg>
