<?xml version="1.0" encoding="UTF-8"?>
<svg enable-background="new 0 0 297.3 62.9" version="1.1" viewBox="0 0 297.3 62.9" xml:space="preserve" xmlns="http://www.w3.org/2000/svg">
<path d="m30.5 0v60.5h-0.2c-1.9 0-3.5-1.6-3.5-3.5 0-1.1 0.5-2.1 1.3-2.7v-4.6c-0.1-0.1-0.2-0.1-0.3-0.1-1.8-0.2-3.4-0.7-5-1.3-0.5 0-1.2 0.4-1.6 0.9-0.5 0.8-0.9 1.7-1.2 2.6 0.6 1.1 0.6 2.4 0 3.5-1 1.7-3.1 2.3-4.8 1.3s-2.3-3.1-1.3-4.8c0.7-1.2 1.9-1.8 3.2-1.8 0.7-0.7 1.2-1.4 1.6-2.3 0.2-0.6 0.2-1.4 0-1.8-1.5-1.1-2.8-2.4-3.9-3.9-0.4-0.2-1.2-0.2-1.8 0-0.8 0.4-1.6 1-2.3 1.7 0 1.2-0.6 2.4-1.8 3.1-1.7 1-3.8 0.4-4.8-1.3s-0.4-3.8 1.3-4.8c1.1-0.7 2.5-0.7 3.6 0 0.9-0.3 1.8-0.6 2.6-1.2 0.4-0.4 0.8-1 0.9-1.5-0.7-1.7-1.2-3.5-1.5-5.4-0.3-0.4-0.9-0.7-1.5-0.9-0.9-0.1-1.9 0-2.8 0.3-0.6 1.1-1.8 1.8-3.1 1.8-1.9 0-3.5-1.6-3.5-3.5s1.6-3.5 3.5-3.5c1.3 0 2.5 0.7 3.1 1.8 1 0.3 1.9 0.4 2.9 0.3 0.6-0.2 1.2-0.5 1.5-0.9 0.2-1.9 0.7-3.7 1.5-5.4 0-0.5-0.4-1.1-0.9-1.5-0.8-0.5-1.6-0.9-2.6-1.1-1.1 0.7-2.5 0.7-3.6 0.1-1.7-1-2.3-3.1-1.3-4.8s3.1-2.3 4.8-1.3c1.1 0.6 1.7 1.8 1.8 3 0.7 0.7 1.5 1.3 2.3 1.7 0.6 0.2 1.3 0.2 1.8 0 1.1-1.5 2.4-2.8 3.9-3.9 0.2-0.4 0.2-1.2 0-1.8-0.4-0.8-0.9-1.6-1.6-2.2-1.3 0.1-2.5-0.6-3.2-1.8-1-1.7-0.4-3.8 1.3-4.8s3.8-0.4 4.8 1.3c0.6 1.1 0.6 2.4 0 3.5 0.3 1 0.6 1.8 1.2 2.6 0.5 0.5 1.2 0.9 1.6 0.9 1.6-0.7 3.3-1.1 5-1.3 0.1 0 0.2-0.1 0.3-0.1v-4.8c-0.8-0.6-1.3-1.6-1.3-2.8 0-1.9 1.6-3.5 3.5-3.5h0.1z" fill="#4C2668"/>
<polygon points="60.8 17.7 60.8 42.8 43.1 60.6 30.5 60.6 30.5 49.8 38.7 49.8 50.1 38.4 50.1 22.2 38.7 10.7 30.5 10.7 30.5 0 43.1 0" fill="#1494C1"/>
<path d="m93.3 31.1c-1.4 0.7-4.2 1.4-7.7 1.4-8.2 0-14.4-5.2-14.4-14.7 0-9.1 6.2-15.3 15.2-15.3 3.6 0 5.9 0.8 6.9 1.3l-0.9 3.1c-1.4-0.8-3.4-1.3-5.9-1.3-6.8 0-11.4 4.4-11.4 12 0 7.1 4.1 11.7 11.2 11.7 2.3 0 4.6-0.5 6.1-1.2l0.9 3zm3.5-29.7h3.8v30.7h-3.8v-30.7zm11.7 20.9c0.1 5.1 3.4 7.3 7.2 7.3 2.7 0 4.4-0.5 5.8-1.1l0.6 2.7c-1.3 0.6-3.6 1.3-7 1.3-6.4 0-10.3-4.2-10.3-10.6 0-6.3 3.7-11.3 9.8-11.3 6.8 0 8.6 6 8.6 9.9 0 0.8-0.1 1.4-0.1 1.8h-14.6zm11.1-2.7c0-2.4-1-6.2-5.3-6.2-3.8 0-5.5 3.5-5.8 6.2h11.1zm19.2 12.5-0.3-2.6h-0.1c-1.2 1.6-3.4 3.1-6.4 3.1-4.2 0-6.4-3-6.4-6 0-5.1 4.5-7.8 12.6-7.8v-0.4c0-1.7-0.5-4.8-4.8-4.8-1.9 0-4 0.6-5.4 1.6l-0.9-2.5c1.7-1.1 4.2-1.9 6.9-1.9 6.4 0 8 4.4 8 8.6v7.8c0 1.8 0.1 3.6 0.3 5h-3.5zm-0.6-10.7c-4.2-0.1-8.9 0.6-8.9 4.7 0 2.5 1.6 3.6 3.6 3.6 2.7 0 4.5-1.7 5.1-3.5 0.1-0.4 0.2-0.8 0.2-1.2v-3.6zm9-3.7c0-2.5 0-4.6-0.2-6.5h3.3l0.1 4.1h0.2c1-2.8 3.2-4.6 5.8-4.6 0.4 0 0.7 0 1.1 0.1v3.6c-0.4-0.1-0.8-0.1-1.3-0.1-2.7 0-4.6 2-5.1 4.9-0.1 0.5-0.2 1.1-0.2 1.8v11.2h-3.8v-14.5zm43.8 13.4c-1.4 0.7-4.2 1.4-7.7 1.4-8.2 0-14.4-5.2-14.4-14.7 0-9.1 6.2-15.3 15.2-15.3 3.6 0 5.9 0.8 6.9 1.3l-0.9 3.1c-1.4-0.7-3.5-1.2-5.9-1.2-6.8 0-11.4 4.4-11.4 12 0 7.1 4.1 11.7 11.2 11.7 2.3 0 4.6-0.5 6.1-1.2l0.9 2.9zm22.1-9.7c0 7.7-5.4 11.1-10.4 11.1-5.7 0-10-4.2-10-10.8 0-7 4.6-11.1 10.4-11.1 6 0.1 10 4.4 10 10.8zm-16.6 0.3c0 4.6 2.6 8 6.4 8 3.6 0 6.4-3.4 6.4-8.1 0-3.5-1.8-8-6.3-8-4.5-0.1-6.5 4.1-6.5 8.1zm21.7-10.6 4.1 11.8c0.7 1.9 1.3 3.6 1.7 5.4h0.1c0.5-1.7 1.1-3.5 1.8-5.4l4.1-11.8h4l-8.2 20.9h-3.6l-8-20.9h4zm23-5.8c0 1.3-0.9 2.3-2.4 2.3-1.3 0-2.3-1-2.3-2.3s1-2.4 2.4-2.4 2.3 1 2.3 2.4zm-4.2 26.8v-21h3.8v20.9h-3.8zm27.5-30.7v25.3c0 1.9 0 4 0.2 5.4h-3.4l-0.2-3.6h-0.1c-1.2 2.3-3.7 4.1-7.1 4.1-5.1 0-9-4.3-9-10.6 0-7 4.3-11.2 9.4-11.2 3.2 0 5.4 1.5 6.3 3.2h0.1v-12.6h3.8zm-3.8 18.3c0-0.5 0-1.1-0.2-1.6-0.6-2.4-2.6-4.4-5.5-4.4-3.9 0-6.3 3.5-6.3 8.1 0 4.2 2.1 7.7 6.2 7.7 2.6 0 4.9-1.7 5.6-4.5 0.1-0.5 0.2-1 0.2-1.6v-3.7z" fill="#4C2668"/>
<path d="m84.4 58.2c-0.7 0.3-2.1 0.7-3.8 0.7-4.1 0-7.2-2.6-7.2-7.3 0-4.5 3.1-7.6 7.6-7.6 1.8 0 2.9 0.4 3.4 0.6l-0.4 1.5c-0.7-0.3-1.7-0.6-2.9-0.6-3.4 0-5.7 2.2-5.7 6 0 3.5 2 5.8 5.6 5.8 1.1 0 2.3-0.2 3.1-0.6l0.3 1.5zm13.8-6.9c0 5-3 7.6-6.7 7.6-3.8 0-6.5-3-6.5-7.4 0-4.6 2.9-7.6 6.7-7.6 3.9 0 6.5 3.1 6.5 7.4zm-11.2 0.2c0 3.1 1.7 5.9 4.6 5.9 3 0 4.6-2.7 4.6-6 0-2.9-1.5-5.9-4.6-5.9s-4.6 2.8-4.6 6zm16.3 7.2-4.7-14.5h2l2.3 7.1c0.6 2 1.2 3.7 1.5 5.4 0.4-1.7 1-3.5 1.7-5.4l2.5-7.2h2l-5.2 14.5h-2.1zm10.6-14.5v14.5h-1.9v-14.5h1.9zm3 0.2c1.1-0.2 2.5-0.3 4-0.3 2.7 0 4.6 0.6 5.9 1.8s2 2.9 2 5.2c0 2.4-0.7 4.3-2.1 5.6-1.4 1.4-3.6 2.1-6.4 2.1-1.3 0-2.5-0.1-3.4-0.2v-14.2zm1.9 12.8c0.5 0.1 1.2 0.1 1.9 0.1 4 0 6.2-2.2 6.2-6.1 0-3.4-1.9-5.6-5.9-5.6-1 0-1.7 0.1-2.2 0.2v11.4zm17.3-5.1v1.4h-5.3v-1.4h5.3zm4.1-5.7-2.5 1.3-0.4-1.4 3.1-1.6h1.6v14h-1.8v-12.3zm6.4 10.9c0.4 0 0.9 0 1.5-0.1 1.1-0.2 2.1-0.6 2.9-1.4 0.9-0.8 1.6-2.1 1.8-3.7h-0.1c-0.8 0.9-1.9 1.5-3.3 1.5-2.5 0-4.1-1.9-4.1-4.3 0-2.6 1.9-5 4.8-5s4.6 2.3 4.6 5.9c0 3.1-1 5.2-2.4 6.6-1.1 1.1-2.6 1.7-4.1 1.9-0.7 0.1-1.3 0.1-1.7 0.1v-1.5zm0.7-8c0 1.7 1.1 3 2.7 3 1.3 0 2.3-0.6 2.8-1.5 0.1-0.2 0.2-0.4 0.2-0.7 0-2.4-0.9-4.2-2.9-4.2-1.7 0-2.8 1.4-2.8 3.4zm17.6 9.4-4.7-14.5h2l2.3 7.1c0.6 2 1.2 3.7 1.5 5.4 0.4-1.7 1-3.5 1.7-5.4l2.5-7.2h2l-5.2 14.6h-2.1zm13.7 0-0.2-1.3h-0.1c-0.6 0.8-1.7 1.5-3.2 1.5-2.1 0-3.2-1.5-3.2-3 0-2.5 2.2-3.9 6.3-3.9v-0.2c0-0.9-0.2-2.4-2.4-2.4-1 0-2 0.3-2.7 0.8l-0.4-1.2c0.9-0.6 2.1-0.9 3.4-0.9 3.2 0 4 2.2 4 4.3v3.9c0 0.9 0 1.8 0.2 2.5h-1.7zm-0.2-5.4c-2.1 0-4.4 0.3-4.4 2.3 0 1.2 0.8 1.8 1.8 1.8 1.4 0 2.2-0.9 2.5-1.7 0.1-0.2 0.1-0.4 0.1-0.6v-1.8zm12 5c-0.5 0.3-1.6 0.6-3 0.6-3.1 0-5.2-2.1-5.2-5.3s2.2-5.5 5.6-5.5c1.1 0 2.1 0.3 2.6 0.5l-0.4 1.4c-0.5-0.3-1.2-0.5-2.2-0.5-2.4 0-3.7 1.8-3.7 3.9 0 2.4 1.5 3.9 3.6 3.9 1.1 0 1.8-0.3 2.3-0.5l0.4 1.5zm9.2 0c-0.5 0.3-1.6 0.6-3 0.6-3.1 0-5.2-2.1-5.2-5.3s2.2-5.5 5.6-5.5c1.1 0 2.1 0.3 2.6 0.5l-0.4 1.5c-0.5-0.3-1.2-0.5-2.2-0.5-2.4 0-3.7 1.8-3.7 3.9 0 2.4 1.5 3.9 3.6 3.9 1.1 0 1.8-0.3 2.3-0.5l0.4 1.4zm3.9-13c0 0.6-0.5 1.2-1.2 1.2s-1.1-0.5-1.1-1.2 0.5-1.2 1.2-1.2 1.1 0.6 1.1 1.2zm-2.1 13.4v-10.4h1.9v10.4h-1.9zm4.7-7.6c0-1.1 0-2-0.1-2.8h1.7l0.1 1.7c0.5-1 1.7-2 3.4-2 1.4 0 3.7 0.9 3.7 4.4v6.2h-1.9v-6c0-1.7-0.6-3.1-2.4-3.1-1.2 0-2.2 0.9-2.5 1.9-0.1 0.2-0.1 0.6-0.1 0.9v6.3h-1.9v-7.5zm12.9 2.7c0 2.6 1.7 3.6 3.6 3.6 1.4 0 2.2-0.2 2.9-0.5l0.3 1.4c-0.7 0.3-1.8 0.6-3.5 0.6-3.2 0-5.1-2.1-5.1-5.2s1.8-5.6 4.9-5.6c3.4 0 4.3 3 4.3 4.9 0 0.4 0 0.7-0.1 0.9h-7.3zm5.5-1.4c0-1.2-0.5-3.1-2.6-3.1-1.9 0-2.8 1.8-2.9 3.1h5.5zm16.3-0.5h-5.6v5.2h6.3v1.6h-8.1v-14.5h7.8v1.6h-6v4.6h5.6v1.5zm4.2-3.6 1.5 2.2c0.4 0.6 0.7 1.1 1.1 1.7h0.1c0.3-0.6 0.7-1.2 1-1.7l1.5-2.2h2l-3.5 5 3.7 5.4h-2.1l-1.5-2.3c-0.4-0.6-0.8-1.2-1.1-1.8-0.3 0.6-0.7 1.2-1.1 1.8l-1.5 2.3h-2.1l3.7-5.3-3.5-5.1h1.8zm8.9 3.4c0-1.3 0-2.4-0.1-3.4h1.7l0.1 1.8c0.8-1.3 2-2 3.7-2 2.5 0 4.4 2.1 4.4 5.3 0 3.7-2.3 5.6-4.7 5.6-1.4 0-2.6-0.6-3.2-1.6v5.7h-1.9v-11.4zm1.8 2.7c0 0.3 0 0.5 0.1 0.8 0.3 1.3 1.5 2.2 2.8 2.2 2 0 3.2-1.6 3.2-4 0-2.1-1.1-3.9-3.1-3.9-1.3 0-2.5 0.9-2.9 2.3-0.1 0.2-0.1 0.5-0.1 0.8v1.8zm11.4-0.6c0 2.6 1.7 3.6 3.6 3.6 1.4 0 2.2-0.2 2.9-0.5l0.3 1.4c-0.7 0.3-1.8 0.6-3.5 0.6-3.2 0-5.1-2.1-5.1-5.2s1.8-5.6 4.9-5.6c3.4 0 4.3 3 4.3 4.9 0 0.4 0 0.7-0.1 0.9h-7.3zm5.6-1.4c0-1.2-0.5-3.1-2.6-3.1-1.9 0-2.8 1.8-2.9 3.1h5.5zm4-0.9c0-1.2 0-2.3-0.1-3.2h1.7l0.1 2h0.1c0.5-1.4 1.6-2.3 2.9-2.3 0.2 0 0.4 0 0.5 0.1v1.8c-0.2 0-0.4-0.1-0.6-0.1-1.3 0-2.3 1-2.5 2.4 0 0.3-0.1 0.6-0.1 0.9v5.5h-1.9v-7.1zm9.7-6.2v3h2.7v1.4h-2.7v5.6c0 1.3 0.4 2 1.4 2 0.5 0 0.9-0.1 1.1-0.1l0.1 1.4c-0.4 0.2-0.9 0.3-1.7 0.3-0.9 0-1.6-0.3-2-0.8-0.5-0.6-0.7-1.5-0.7-2.7v-5.7h-1.6v-1.4h1.6v-2.5l1.8-0.5zm4.5 11.4c0.6 0.4 1.5 0.8 2.5 0.8 1.4 0 2-0.7 2-1.5 0-0.9-0.5-1.4-1.9-1.9-1.9-0.7-2.8-1.7-2.8-2.9 0-1.7 1.4-3.1 3.6-3.1 1.1 0 2 0.3 2.6 0.6l-0.5 1.4c-0.4-0.3-1.2-0.6-2.1-0.6-1.1 0-1.7 0.6-1.7 1.4 0 0.9 0.6 1.2 2 1.8 1.8 0.7 2.7 1.6 2.7 3.1 0 1.8-1.4 3.1-3.9 3.1-1.1 0-2.2-0.3-2.9-0.7l0.4-1.5z" fill="#383838"/>
</svg>
