<?xml version="1.0" encoding="utf-8"?>
<!-- Generator: Adobe Illustrator 24.3.0, SVG Export Plug-In . SVG Version: 6.00 Build 0)  -->
<svg version="1.1" id="Layer_1" xmlns="http://www.w3.org/2000/svg" xmlns:xlink="http://www.w3.org/1999/xlink" x="0px" y="0px"
	 viewBox="0 0 314.3 65.1" style="enable-background:new 0 0 314.3 65.1;" xml:space="preserve">
<g>
	<g>
		<g>
			<path style="fill:#4C2668;" d="M85.8,34.3c-3.1,0-5.7-0.7-7.7-2c-2.1-1.3-3.6-3.2-4.6-5.6s-1.5-5.2-1.5-8.4
				c0-3.1,0.5-5.9,1.6-8.2c1.1-2.4,2.6-4.2,4.7-5.6c2.1-1.3,4.6-2,7.7-2c3.1,0,5.4,0.5,6.9,1.5C94.3,5,95,6.2,95,7.5
				c0,1.1-0.4,1.9-1.3,2.6c-0.9,0.7-2.1,1-3.8,1c0-1-0.1-1.9-0.4-2.8c-0.3-0.9-0.8-1.7-1.4-2.2c-0.6-0.6-1.5-0.9-2.7-0.9
				c-2.5,0-4.3,1.1-5.3,3.4c-1,2.3-1.5,5.5-1.5,9.7c0,4.2,0.6,7.4,1.8,9.5c1.2,2.1,3.3,3.2,6.2,3.2c1.3,0,2.5-0.2,3.4-0.6
				s1.8-0.9,2.4-1.6c0.7-0.6,1.2-1.3,1.7-1.9c0.5,0.4,0.7,1,0.7,1.8c0,0.8-0.3,1.6-0.8,2.5c-0.6,0.9-1.5,1.6-2.9,2.2
				C90,34,88.1,34.3,85.8,34.3z"/>
			<path style="fill:#4C2668;" d="M97.3,33.8v-2.2h0.5c0.7,0,1.3-0.2,1.9-0.5c0.6-0.3,0.9-1.1,0.9-2.4V5.9c0-0.8-0.2-1.4-0.5-1.7
				c-0.3-0.4-0.7-0.6-1.1-0.7c-0.4-0.1-0.9-0.2-1.2-0.2h-0.5V1h9.6v27.7c0,0.8,0.1,1.5,0.4,1.9c0.3,0.4,0.6,0.7,1.1,0.8
				c0.4,0.1,0.9,0.2,1.3,0.2h0.5v2.2H97.3z"/>
			<path style="fill:#4C2668;" d="M121.9,34.3c-3.5,0-6.1-1-7.8-3.1c-1.8-2.1-2.7-5-2.7-8.8c0-4.1,0.9-7.1,2.6-9.2
				c1.8-2.1,4.2-3.1,7.4-3.1c2.9,0,5.2,0.9,6.9,2.7c1.7,1.8,2.6,4.4,2.6,7.8v2.1h-13.2c0.1,2.9,0.6,5.1,1.5,6.4c0.9,1.4,2.3,2,4,2
				c1.4,0,2.5-0.3,3.5-1c0.9-0.7,1.6-1.5,2.1-2.5c0.8,0.4,1.2,1,1.2,2c0,0.8-0.3,1.5-0.9,2.2c-0.6,0.7-1.5,1.3-2.7,1.8
				C125.3,34,123.8,34.3,121.9,34.3z M117.8,20h6.9c0-2.2-0.2-4-0.7-5.3c-0.5-1.3-1.3-1.9-2.4-1.9c-1.1,0-2,0.6-2.7,1.9
				C118.2,15.9,117.8,17.7,117.8,20z"/>
			<path style="fill:#4C2668;" d="M140.1,34.3c-1.8,0-3.3-0.6-4.5-1.7c-1.2-1.2-1.8-2.9-1.8-5.3c0-2.3,0.7-4.1,2.2-5.2
				c1.5-1.1,3.7-1.7,6.7-1.8l3.3-0.1v-2.4c0-1.5-0.2-2.7-0.5-3.6c-0.3-0.9-1-1.4-2.1-1.4c-1,0-1.7,0.4-2.1,1.3
				c-0.4,0.9-0.6,2-0.6,3.4c-1.8,0-3.1-0.2-4-0.7c-0.9-0.4-1.3-1.2-1.3-2.2c0-1,0.4-1.8,1.1-2.5c0.8-0.7,1.8-1.1,3-1.4
				s2.7-0.5,4.2-0.5c2.8,0,5,0.6,6.4,1.7c1.4,1.1,2.1,3,2.1,5.7v11c0,1.2,0.2,2,0.5,2.4c0.4,0.4,1,0.6,1.9,0.6h0.1v2.2h-7.6
				l-0.9-3.1h-0.3c-0.6,0.8-1.2,1.4-1.7,1.9c-0.5,0.5-1.1,0.9-1.8,1.2C141.9,34.1,141.1,34.3,140.1,34.3z M142.3,31.2
				c1.2,0,2.1-0.5,2.7-1.6c0.7-1,1-2.4,1-4.1v-3.3l-1.8,0.1c-1.6,0.1-2.7,0.6-3.3,1.4s-0.9,2-0.9,3.6
				C140.1,30,140.8,31.2,142.3,31.2z"/>
			<path style="fill:#4C2668;" d="M157.4,33.8v-2.2h0.1c0.9,0,1.6-0.2,2.2-0.5c0.6-0.4,0.9-1.2,0.9-2.6V15.8c0-1.3-0.3-2.1-0.8-2.4
				c-0.5-0.3-1.2-0.5-2.1-0.5h-0.1v-2.2h8.2l0.8,3.8h0.2c0.5-1.4,1.2-2.4,2.1-3.2c0.9-0.7,2.1-1.1,3.7-1.1c1.5,0,2.7,0.3,3.4,1
				s1.1,1.5,1.1,2.6c0,1.3-0.5,2.2-1.4,2.9c-0.9,0.7-2.2,1-3.8,1c0-1.2-0.1-2.1-0.4-2.7c-0.3-0.6-0.8-0.9-1.6-0.9
				c-0.7,0-1.2,0.3-1.6,0.8c-0.4,0.5-0.7,1.1-1,1.9c-0.2,0.8-0.4,1.6-0.5,2.4c-0.1,0.8-0.1,1.6-0.1,2.2v7.3c0,1.3,0.3,2.1,0.8,2.4
				c0.5,0.3,1.2,0.5,2,0.5h1.3v2.2H157.4z"/>
		</g>
		<g>
			<path style="fill:#4C2668;" d="M201.8,34.3c-3.1,0-5.7-0.7-7.7-2c-2.1-1.3-3.6-3.2-4.6-5.6s-1.5-5.2-1.5-8.4
				c0-3.1,0.5-5.9,1.6-8.2c1.1-2.4,2.6-4.2,4.7-5.6c2.1-1.3,4.6-2,7.7-2c3.1,0,5.4,0.5,6.9,1.5c1.5,1,2.3,2.2,2.3,3.5
				c0,1.1-0.4,1.9-1.3,2.6c-0.9,0.7-2.1,1-3.8,1c0-1-0.1-1.9-0.4-2.8c-0.3-0.9-0.8-1.7-1.4-2.2c-0.6-0.6-1.5-0.9-2.7-0.9
				c-2.5,0-4.3,1.1-5.3,3.4c-1,2.3-1.5,5.5-1.5,9.7c0,4.2,0.6,7.4,1.8,9.5c1.2,2.1,3.3,3.2,6.2,3.2c1.3,0,2.5-0.2,3.4-0.6
				s1.8-0.9,2.4-1.6c0.7-0.6,1.2-1.3,1.7-1.9c0.5,0.4,0.7,1,0.7,1.8c0,0.8-0.3,1.6-0.8,2.5c-0.6,0.9-1.5,1.6-2.9,2.2
				C206,34,204.2,34.3,201.8,34.3z"/>
			<path style="fill:#4C2668;" d="M226.3,34.3c-3.1,0-5.6-0.7-7.6-2c-2-1.3-3.6-3.2-4.6-5.6c-1-2.4-1.5-5.2-1.5-8.4s0.5-6,1.5-8.3
				c1-2.4,2.5-4.2,4.6-5.5c2-1.3,4.6-2,7.7-2c2.9,0,5.4,0.7,7.4,2c2,1.3,3.6,3.2,4.6,5.5c1.1,2.4,1.6,5.2,1.6,8.4
				c0,3.2-0.5,6-1.6,8.4c-1.1,2.4-2.6,4.2-4.6,5.6C231.7,33.6,229.2,34.3,226.3,34.3z M226.3,31.5c2.5,0,4.3-1.2,5.3-3.5
				c1-2.3,1.5-5.5,1.5-9.7c0-4.2-0.5-7.4-1.5-9.7c-1-2.3-2.8-3.4-5.3-3.4s-4.2,1.1-5.3,3.4c-1.1,2.3-1.6,5.5-1.6,9.7
				c0,4.2,0.5,7.4,1.6,9.7C222.1,30.4,223.8,31.5,226.3,31.5z"/>
			<path style="fill:#4C2668;" d="M250.9,33.8l-8.4-26.6c-0.3-0.8-0.7-1.4-1.1-1.6s-0.9-0.4-1.4-0.4h-1V3h13.3v2.2h-1.7
				c-0.4,0-0.8,0.1-1.1,0.3c-0.3,0.2-0.5,0.5-0.5,1c0,0.3,0,0.7,0.1,1c0.1,0.4,0.2,0.7,0.3,1l4,13.4c0.2,0.8,0.5,1.6,0.7,2.7
				c0.2,1,0.4,2,0.5,2.8c0.1-0.7,0.3-1.6,0.6-2.6c0.3-1,0.5-1.9,0.8-2.7l4-13.2c0.1-0.4,0.2-0.8,0.3-1.2c0.1-0.4,0.2-0.8,0.2-1.1
				c0-0.9-0.5-1.4-1.6-1.4h-2V3h10.3v2.2h-1.6c-0.5,0-0.9,0.2-1.2,0.6c-0.3,0.4-0.6,1.2-1,2.6l-8.1,25.5H250.9z"/>
			<path style="fill:#4C2668;" d="M269.7,33.8v-2.2h1.6c0.6,0,1.1-0.2,1.5-0.5c0.4-0.3,0.6-1.1,0.6-2.2V8c0-1.2-0.2-1.9-0.6-2.2
				c-0.4-0.3-0.9-0.5-1.5-0.5h-1.6V3h14v2.2H282c-0.6,0-1.1,0.2-1.5,0.5c-0.4,0.3-0.6,1.1-0.6,2.2v20.9c0,1.2,0.2,1.9,0.6,2.2
				c0.4,0.3,0.9,0.5,1.5,0.5h1.7v2.2H269.7z"/>
			<path style="fill:#4C2668;" d="M286.7,33.8v-2.2h1.6c0.6,0,1.1-0.2,1.5-0.5c0.4-0.3,0.6-1.1,0.6-2.2v-21c0-1.1-0.2-1.8-0.6-2.1
				c-0.4-0.3-0.9-0.5-1.5-0.5h-1.6V3H300c4.5,0,8,1.3,10.5,3.8c2.5,2.5,3.8,6.2,3.8,11.1c0,3.1-0.5,5.9-1.6,8.3
				c-1.1,2.4-2.7,4.3-4.8,5.6c-2.1,1.3-4.7,2-7.9,2H286.7z M296.9,31.2h2.2c2.7,0,4.8-1.2,6.2-3.5c1.4-2.4,2.1-5.6,2.1-9.8
				c0-4.2-0.7-7.2-2.1-9.3c-1.4-2-3.5-3-6.2-3h-2.2V31.2z"/>
		</g>
	</g>
	<g>
		<path style="fill:#4C2668;" d="M30.5,0v60.5c-0.1,0-0.1,0-0.2,0c-1.9,0-3.5-1.6-3.5-3.5c0-1.1,0.5-2.1,1.3-2.7v-4.6
			c-0.1-0.1-0.2-0.1-0.3-0.1c-1.8-0.2-3.4-0.7-5-1.3c-0.5,0-1.2,0.4-1.6,0.9c-0.5,0.8-0.9,1.7-1.2,2.6c0.6,1.1,0.6,2.4,0,3.5
			c-1,1.7-3.1,2.3-4.8,1.3c-1.7-1-2.3-3.1-1.3-4.8c0.7-1.2,1.9-1.8,3.2-1.8c0.7-0.7,1.2-1.4,1.6-2.3c0.2-0.6,0.2-1.4,0-1.8
			c-1.5-1.1-2.8-2.4-3.9-3.9c-0.4-0.2-1.2-0.2-1.8,0c-0.8,0.4-1.6,1-2.3,1.7c0,1.2-0.6,2.4-1.8,3.1c-1.7,1-3.8,0.4-4.8-1.3
			c-1-1.7-0.4-3.8,1.3-4.8C6.5,40,7.9,40,9,40.7c0.9-0.3,1.8-0.6,2.6-1.2c0.4-0.4,0.8-1,0.9-1.5c-0.7-1.7-1.2-3.5-1.5-5.4
			c-0.3-0.4-0.9-0.7-1.5-0.9c-0.9-0.1-1.9,0-2.8,0.3c-0.6,1.1-1.8,1.8-3.1,1.8c-1.9,0-3.5-1.6-3.5-3.5c0-1.9,1.6-3.5,3.5-3.5
			c1.3,0,2.5,0.7,3.1,1.8c1,0.3,1.9,0.4,2.9,0.3c0.6-0.2,1.2-0.5,1.5-0.9c0.2-1.9,0.7-3.7,1.5-5.4c0-0.5-0.4-1.1-0.9-1.5
			c-0.8-0.5-1.6-0.9-2.6-1.1c-1.1,0.7-2.5,0.7-3.6,0.1c-1.7-1-2.3-3.1-1.3-4.8c1-1.7,3.1-2.3,4.8-1.3c1.1,0.6,1.7,1.8,1.8,3
			c0.7,0.7,1.5,1.3,2.3,1.7c0.6,0.2,1.3,0.2,1.8,0c1.1-1.5,2.4-2.8,3.9-3.9c0.2-0.4,0.2-1.2,0-1.8c-0.4-0.8-0.9-1.6-1.6-2.2
			c-1.3,0.1-2.5-0.6-3.2-1.8c-1-1.7-0.4-3.8,1.3-4.8c1.7-1,3.8-0.4,4.8,1.3c0.6,1.1,0.6,2.4,0,3.5c0.3,1,0.6,1.8,1.2,2.6
			c0.5,0.5,1.2,0.9,1.6,0.9c1.6-0.7,3.3-1.1,5-1.3c0.1,0,0.2-0.1,0.3-0.1V6.3c-0.8-0.6-1.3-1.6-1.3-2.8c0-1.9,1.6-3.5,3.5-3.5
			C30.3,0,30.4,0,30.5,0z"/>
		<g>
			<polygon style="fill:#1494C1;" points="60.8,17.7 60.8,42.8 43.1,60.6 30.4,60.6 30.4,49.8 38.6,49.8 50.1,38.4 50.1,22.2 
				38.6,10.7 30.4,10.7 30.4,0 43.1,0 			"/>
		</g>
	</g>
	<g>
		<g>
			<path style="fill:#383838;" d="M80.3,46c-0.9,0-1.7,0.3-2.4,0.8c-0.6,0.5-1.1,1.2-1.5,2.1c-0.3,0.9-0.5,2-0.5,3.2
				c0,1.9,0.4,3.3,1.1,4.4c0.7,1.1,1.8,1.6,3.3,1.6c0.6,0,1.1-0.1,1.7-0.2c0.5-0.1,1.1-0.3,1.6-0.5v2c-0.5,0.2-1.1,0.4-1.6,0.5
				c-0.6,0.1-1.2,0.2-2,0.2c-1.4,0-2.6-0.3-3.6-1c-1-0.6-1.7-1.6-2.2-2.8c-0.5-1.2-0.7-2.6-0.7-4.3c0-1.6,0.3-2.9,0.8-4.2
				s1.3-2.2,2.3-2.8c1-0.7,2.2-1,3.7-1c1.4,0,2.7,0.3,3.9,0.9l-0.8,1.9c-0.5-0.2-0.9-0.4-1.4-0.6C81.4,46.1,80.9,46,80.3,46z"/>
			<path style="fill:#383838;" d="M98,52c0,1.6-0.2,3-0.7,4.2c-0.5,1.2-1.2,2.2-2.1,2.8c-1,0.7-2.2,1-3.6,1c-1.5,0-2.7-0.3-3.7-1
				c-1-0.7-1.7-1.6-2.1-2.9C85.3,55,85,53.6,85,52c0-2.5,0.5-4.5,1.6-5.9c1.1-1.4,2.7-2.1,4.9-2.1c1.4,0,2.6,0.3,3.6,1
				c1,0.7,1.7,1.6,2.1,2.8C97.8,49,98,50.4,98,52z M87.5,52c0,1.9,0.3,3.4,1,4.5s1.7,1.6,3.1,1.6c1.4,0,2.4-0.5,3.1-1.6
				c0.7-1,1-2.5,1-4.5c0-1.9-0.3-3.4-1-4.5c-0.7-1-1.7-1.6-3.1-1.6c-1.4,0-2.4,0.5-3.1,1.6C87.8,48.6,87.5,50.1,87.5,52z"/>
			<path style="fill:#383838;" d="M110.5,44.2l-4.9,15.6h-2.5l-4.9-15.6h2.4l2.9,9.9c0.2,0.5,0.3,1.1,0.5,1.7
				c0.1,0.6,0.3,1.2,0.3,1.7c0.1-0.5,0.2-1,0.3-1.7c0.1-0.6,0.3-1.2,0.5-1.7l3-9.9H110.5z"/>
			<path style="fill:#383838;" d="M117.6,59.8h-5.7v-1.3l1.7-0.5V46l-1.7-0.5v-1.3h5.7v1.3l-1.7,0.5v12l1.7,0.5V59.8z"/>
			<path style="fill:#383838;" d="M131,51.8c0,2.6-0.6,4.6-1.9,6c-1.3,1.3-3.1,2-5.4,2h-4V44.2h4.3c2.2,0,3.9,0.7,5.1,2
				C130.4,47.4,131,49.3,131,51.8z M128.6,51.9c0-2-0.4-3.4-1.2-4.4c-0.8-0.9-2-1.4-3.5-1.4H122v11.7h1.6
				C126.9,57.9,128.6,55.9,128.6,51.9z"/>
			<path style="fill:#383838;" d="M133.1,55v-2h5.3v2H133.1z"/>
			<path style="fill:#383838;" d="M144.9,59.8h-2.2V49.6c0-0.5,0-1,0-1.5c0-0.5,0-0.9,0.1-1.4c-0.1,0.2-0.3,0.3-0.5,0.5
				c-0.2,0.2-0.4,0.4-0.7,0.6l-1.6,1.4l-1.2-1.4l4.2-3.6h1.9V59.8z"/>
			<path style="fill:#383838;" d="M157.7,50.8c0,1.2-0.1,2.4-0.3,3.5c-0.2,1.1-0.6,2.1-1,3c-0.5,0.9-1.2,1.5-2,2
				c-0.9,0.5-2,0.7-3.3,0.7c-0.3,0-0.6,0-1,0c-0.4,0-0.7-0.1-0.9-0.2v-2c0.3,0.1,0.6,0.2,0.9,0.2c0.3,0,0.6,0.1,1,0.1
				c1.2,0,2.1-0.3,2.7-0.8c0.7-0.5,1.1-1.2,1.4-2.1c0.3-0.9,0.4-1.9,0.5-2.9h-0.1c-0.3,0.5-0.7,1-1.2,1.3c-0.5,0.3-1.2,0.5-2,0.5
				c-1.3,0-2.2-0.4-3-1.3c-0.7-0.9-1.1-2.1-1.1-3.5c0-1.6,0.4-2.9,1.2-3.9c0.8-1,2-1.4,3.4-1.4c1.4,0,2.6,0.6,3.5,1.7
				C157.2,46.8,157.7,48.6,157.7,50.8z M152.8,45.9c-0.7,0-1.3,0.3-1.8,0.8c-0.4,0.5-0.7,1.4-0.7,2.5c0,1,0.2,1.7,0.6,2.3
				c0.4,0.5,1,0.8,1.8,0.8c0.6,0,1-0.1,1.4-0.4s0.7-0.6,0.9-1c0.2-0.4,0.3-0.8,0.3-1.3c0-0.5-0.1-1.1-0.3-1.7
				c-0.2-0.6-0.5-1.1-0.8-1.5C153.9,46.1,153.4,45.9,152.8,45.9z"/>
		</g>
		<g>
			<path style="fill:#383838;" d="M176.7,44.2l-4.9,15.6h-2.5l-4.9-15.6h2.4l2.9,9.9c0.2,0.5,0.3,1.1,0.5,1.7
				c0.1,0.6,0.3,1.2,0.3,1.7c0.1-0.5,0.2-1,0.3-1.7c0.1-0.6,0.3-1.2,0.5-1.7l3-9.9H176.7z"/>
			<path style="fill:#383838;" d="M181.5,47.8c2.7,0,4,1.4,4,4.1v8h-1.6l-0.4-1.6h-0.1c-0.5,0.6-0.9,1.1-1.5,1.4
				c-0.5,0.3-1.2,0.5-2.1,0.5c-1,0-1.8-0.3-2.4-0.9c-0.6-0.6-0.9-1.5-0.9-2.6c0-2.4,1.7-3.7,5-3.8l1.8-0.1V52c0-0.9-0.2-1.5-0.5-1.8
				c-0.3-0.4-0.8-0.5-1.5-0.5c-0.5,0-1,0.1-1.5,0.2c-0.5,0.2-1,0.4-1.4,0.6l-0.7-1.6c0.5-0.3,1.1-0.5,1.8-0.7
				C180.1,47.9,180.8,47.8,181.5,47.8z M183.3,54.1l-1.4,0c-1.1,0-1.9,0.3-2.4,0.6c-0.5,0.4-0.7,0.9-0.7,1.6c0,0.6,0.2,1.1,0.5,1.4
				c0.3,0.3,0.7,0.4,1.3,0.4c0.8,0,1.4-0.3,1.9-0.8c0.5-0.5,0.8-1.3,0.8-2.3V54.1z"/>
			<path style="fill:#383838;" d="M192.2,60.1c-1.5,0-2.7-0.5-3.6-1.5c-0.9-1-1.3-2.5-1.3-4.6c0-2.1,0.5-3.6,1.4-4.6
				c0.9-1,2.1-1.5,3.7-1.5c0.6,0,1.2,0.1,1.7,0.2s0.9,0.3,1.3,0.5l-0.7,1.8c-0.4-0.2-0.7-0.3-1.1-0.4c-0.4-0.1-0.8-0.2-1.1-0.2
				c-1.9,0-2.8,1.4-2.8,4.3c0,2.8,0.9,4.2,2.8,4.2c0.5,0,1-0.1,1.5-0.2c0.4-0.1,0.9-0.3,1.3-0.5v1.9c-0.4,0.2-0.8,0.4-1.3,0.5
				C193.4,60,192.8,60.1,192.2,60.1z"/>
			<path style="fill:#383838;" d="M201.3,60.1c-1.5,0-2.7-0.5-3.6-1.5c-0.9-1-1.3-2.5-1.3-4.6c0-2.1,0.5-3.6,1.4-4.6
				c0.9-1,2.1-1.5,3.7-1.5c0.6,0,1.2,0.1,1.7,0.2c0.5,0.1,0.9,0.3,1.3,0.5l-0.7,1.8c-0.4-0.2-0.7-0.3-1.1-0.4
				c-0.4-0.1-0.8-0.2-1.1-0.2c-1.9,0-2.8,1.4-2.8,4.3c0,2.8,0.9,4.2,2.8,4.2c0.5,0,1-0.1,1.5-0.2c0.4-0.1,0.9-0.3,1.3-0.5v1.9
				c-0.4,0.2-0.8,0.4-1.3,0.5C202.5,60,201.9,60.1,201.3,60.1z"/>
			<path style="fill:#383838;" d="M207.2,43.5c0.4,0,0.7,0.1,0.9,0.3c0.2,0.2,0.4,0.6,0.4,1c0,0.5-0.1,0.8-0.4,1
				c-0.2,0.2-0.5,0.3-0.9,0.3c-0.4,0-0.7-0.1-0.9-0.3c-0.2-0.2-0.4-0.6-0.4-1c0-0.5,0.1-0.8,0.4-1C206.6,43.6,206.9,43.5,207.2,43.5
				z M208.3,48v11.8h-2.3V48H208.3z"/>
			<path style="fill:#383838;" d="M216.7,47.8c1.2,0,2.1,0.3,2.8,1c0.7,0.7,1,1.7,1,3.2v7.8h-2.2v-7.4c0-0.9-0.2-1.6-0.5-2
				c-0.3-0.5-0.9-0.7-1.6-0.7c-1,0-1.8,0.3-2.1,1c-0.4,0.7-0.6,1.7-0.6,3.1v6h-2.3V48h1.8l0.3,1.6h0.1c0.3-0.6,0.8-1,1.4-1.3
				C215.4,48,216,47.8,216.7,47.8z"/>
			<path style="fill:#383838;" d="M227.2,47.8c1.4,0,2.5,0.5,3.3,1.5c0.8,1,1.2,2.3,1.2,3.8v1.3h-7.1c0.1,2.5,1.1,3.8,3.2,3.8
				c0.6,0,1.2-0.1,1.8-0.2c0.5-0.1,1.1-0.3,1.7-0.6v1.9c-0.5,0.3-1.1,0.5-1.6,0.6c-0.6,0.1-1.2,0.2-1.9,0.2c-1.7,0-2.9-0.5-3.9-1.6
				c-0.9-1.1-1.4-2.5-1.4-4.4c0-2,0.4-3.5,1.3-4.6C224.5,48.3,225.7,47.8,227.2,47.8z M227.2,49.6c-0.7,0-1.3,0.3-1.8,0.8
				c-0.4,0.5-0.7,1.3-0.8,2.4h4.9c0-0.9-0.2-1.7-0.6-2.3C228.6,49.9,228,49.6,227.2,49.6z"/>
		</g>
		<g>
			<path style="fill:#383838;" d="M249,59.8l-1.4-4.5h-5.2l-1.4,4.5h-2.4l5.1-15.7h2.5l5.2,15.7H249z M247,53.3l-1.4-4.6
				c-0.1-0.2-0.1-0.5-0.2-0.8c-0.1-0.3-0.2-0.6-0.2-0.9c-0.1-0.3-0.1-0.6-0.2-0.8c-0.1,0.4-0.2,0.9-0.3,1.3
				c-0.1,0.5-0.2,0.9-0.3,1.2l-1.4,4.6H247z"/>
			<path style="fill:#383838;" d="M258.4,47.8c1.2,0,2.1,0.3,2.8,1c0.7,0.7,1,1.7,1,3.2v7.8h-2.2v-7.4c0-0.9-0.2-1.6-0.5-2
				c-0.3-0.5-0.9-0.7-1.6-0.7c-1,0-1.8,0.3-2.1,1c-0.4,0.7-0.6,1.7-0.6,3.1v6h-2.3V48h1.8l0.3,1.6h0.1c0.3-0.6,0.8-1,1.4-1.3
				C257.1,48,257.7,47.8,258.4,47.8z"/>
			<path style="fill:#383838;" d="M268.9,47.8c2.7,0,4,1.4,4,4.1v8h-1.6l-0.4-1.6h-0.1c-0.5,0.6-0.9,1.1-1.5,1.4
				c-0.5,0.3-1.2,0.5-2.1,0.5c-1,0-1.8-0.3-2.4-0.9c-0.6-0.6-0.9-1.5-0.9-2.6c0-2.4,1.7-3.7,5-3.8l1.8-0.1V52c0-0.9-0.2-1.5-0.5-1.8
				c-0.3-0.4-0.8-0.5-1.5-0.5c-0.5,0-1,0.1-1.5,0.2c-0.5,0.2-1,0.4-1.4,0.6l-0.7-1.6c0.5-0.3,1.1-0.5,1.8-0.7
				C267.5,47.9,268.2,47.8,268.9,47.8z M270.6,54.1l-1.4,0c-1.1,0-1.9,0.3-2.4,0.6c-0.5,0.4-0.7,0.9-0.7,1.6c0,0.6,0.2,1.1,0.5,1.4
				c0.3,0.3,0.7,0.4,1.3,0.4c0.8,0,1.4-0.3,1.9-0.8c0.5-0.5,0.8-1.3,0.8-2.3V54.1z"/>
			<path style="fill:#383838;" d="M277.8,59.8h-2.3V43.2h2.3V59.8z"/>
			<path style="fill:#383838;" d="M279.1,48h2.4l2.1,6.6c0.2,0.5,0.3,1,0.4,1.4c0.1,0.5,0.2,0.9,0.3,1.3h0.1
				c0.1-0.4,0.2-0.8,0.3-1.3c0.1-0.5,0.3-1,0.4-1.5l2-6.6h2.4L285,61.4c-0.4,1.2-0.9,2.1-1.6,2.7c-0.6,0.6-1.5,0.9-2.5,0.9
				c-0.3,0-0.6,0-0.8-0.1c-0.2,0-0.5-0.1-0.6-0.1v-1.8c0.2,0,0.3,0.1,0.5,0.1c0.2,0,0.4,0,0.6,0c0.6,0,1-0.2,1.4-0.5
				c0.3-0.4,0.6-0.9,0.9-1.6l0.4-1.3L279.1,48z"/>
			<path style="fill:#383838;" d="M298,56.5c0,1.2-0.4,2-1.1,2.6c-0.8,0.6-1.8,0.9-3.2,0.9c-0.7,0-1.4-0.1-1.9-0.2
				c-0.6-0.1-1.1-0.3-1.5-0.5v-2.1c0.5,0.2,1,0.5,1.6,0.7c0.6,0.2,1.2,0.3,1.8,0.3c0.7,0,1.3-0.1,1.6-0.4c0.3-0.3,0.5-0.7,0.5-1.1
				c0-0.3-0.1-0.5-0.2-0.7c-0.1-0.2-0.4-0.4-0.7-0.6c-0.4-0.2-0.9-0.5-1.5-0.8c-0.7-0.3-1.2-0.6-1.7-0.9c-0.5-0.3-0.8-0.7-1.1-1.1
				c-0.2-0.4-0.4-0.9-0.4-1.6c0-1,0.4-1.8,1.1-2.3c0.7-0.6,1.7-0.8,3-0.8c0.6,0,1.2,0.1,1.8,0.2c0.6,0.1,1.1,0.3,1.7,0.6l-0.7,1.7
				c-0.5-0.2-0.9-0.4-1.4-0.5c-0.5-0.1-0.9-0.2-1.4-0.2c-0.6,0-1.1,0.1-1.4,0.3c-0.3,0.2-0.5,0.5-0.5,0.9c0,0.3,0.1,0.5,0.2,0.7
				c0.1,0.2,0.4,0.4,0.8,0.6c0.4,0.2,0.9,0.5,1.5,0.7c0.6,0.3,1.2,0.6,1.6,0.9c0.5,0.3,0.8,0.7,1.1,1.1
				C297.8,55.4,298,55.9,298,56.5z"/>
			<path style="fill:#383838;" d="M301,43.5c0.4,0,0.7,0.1,0.9,0.3c0.2,0.2,0.4,0.6,0.4,1c0,0.5-0.1,0.8-0.4,1
				c-0.2,0.2-0.5,0.3-0.9,0.3c-0.4,0-0.7-0.1-0.9-0.3c-0.2-0.2-0.4-0.6-0.4-1c0-0.5,0.1-0.8,0.4-1C300.3,43.6,300.6,43.5,301,43.5z
				 M302.1,48v11.8h-2.3V48H302.1z"/>
			<path style="fill:#383838;" d="M311.9,56.5c0,1.2-0.4,2-1.1,2.6c-0.8,0.6-1.8,0.9-3.2,0.9c-0.7,0-1.4-0.1-1.9-0.2
				c-0.6-0.1-1.1-0.3-1.5-0.5v-2.1c0.5,0.2,1,0.5,1.6,0.7c0.6,0.2,1.2,0.3,1.8,0.3c0.7,0,1.3-0.1,1.6-0.4c0.3-0.3,0.5-0.7,0.5-1.1
				c0-0.3-0.1-0.5-0.2-0.7c-0.1-0.2-0.4-0.4-0.7-0.6c-0.4-0.2-0.9-0.5-1.5-0.8c-0.7-0.3-1.2-0.6-1.7-0.9c-0.5-0.3-0.8-0.7-1.1-1.1
				c-0.2-0.4-0.4-0.9-0.4-1.6c0-1,0.4-1.8,1.1-2.3c0.7-0.6,1.7-0.8,3-0.8c0.6,0,1.2,0.1,1.8,0.2c0.6,0.1,1.1,0.3,1.7,0.6l-0.7,1.7
				c-0.5-0.2-0.9-0.4-1.4-0.5c-0.5-0.1-0.9-0.2-1.4-0.2c-0.6,0-1.1,0.1-1.4,0.3c-0.3,0.2-0.5,0.5-0.5,0.9c0,0.3,0.1,0.5,0.2,0.7
				c0.1,0.2,0.4,0.4,0.8,0.6c0.4,0.2,0.9,0.5,1.5,0.7c0.6,0.3,1.2,0.6,1.6,0.9c0.5,0.3,0.8,0.7,1.1,1.1
				C311.8,55.4,311.9,55.9,311.9,56.5z"/>
		</g>
	</g>
</g>
</svg>
